<?xml version="1.0" encoding="UTF-8" standalone="no"?>
<!-- Généré par Microsoft Visio, SVG Export l2node.svg Page 1 -->
<svg xmlns="http://www.w3.org/2000/svg" xmlns:xlink="http://www.w3.org/1999/xlink" xmlns:ev="http://www.w3.org/2001/xml-events" xmlns:v="http://schemas.microsoft.com/visio/2003/SVGExtensions/" width="9.43955in" height="7.74503in" viewBox="0 0 679.648 557.642" xml:space="preserve" color-interpolation-filters="sRGB" class="st46"> <style type="text/css"> <![CDATA[ .st1 {fill:#fcebdd;fill-opacity:0.75;stroke:#000000;stroke-linecap:round;stroke-linejoin:round;stroke-width:0.24} .st2 {fill:#9c4a09;font-family:Calibri;font-size:1.5em;font-weight:bold} .st3 {fill:#f9c499;fill-opacity:0.75;stroke:#9c4a09;stroke-linecap:round;stroke-linejoin:round;stroke-width:0.24} .st4 {fill:#ffffff;fill-opacity:0.75;stroke:#9c4a09;stroke-linecap:round;stroke-linejoin:round;stroke-width:0.24} .st5 {fill:#f9c499;stroke:#9c4a09;stroke-linecap:round;stroke-linejoin:round;stroke-width:1.5} .st6 {fill:#9c4a09;font-family:Calibri;font-size:1.5em} .st7 {font-family:Consolas;font-size:0.666672em} .st8 {fill:#ea700d;font-family:Consolas;font-size:0.666672em} .st9 {fill:#9c4a09;font-family:Calibri;font-size:1.16666em} .st10 {fill:#923931;font-size:1em;font-weight:bold} .st11 {font-size:1em;font-weight:bold} .st12 {fill:#ddd6e5;fill-opacity:0.75;stroke:#54426a;stroke-linecap:round;stroke-linejoin:round;stroke-width:0.24} .st13 {fill:#c4d6a0;fill-opacity:0.75;stroke:#50632a;stroke-linecap:round;stroke-linejoin:round;stroke-width:0.24} .st14 {fill:#ebf1df;fill-opacity:0.75;stroke:#50632a;stroke-linecap:round;stroke-linejoin:round;stroke-width:0.24} .st15 {fill:#d9958f;fill-opacity:0.5;stroke:#612621;stroke-linecap:round;stroke-linejoin:round;stroke-opacity:0;stroke-width:0.24} .st16 {fill:#d9958f;fill-opacity:0.9;stroke:#612621;stroke-linecap:round;stroke-linejoin:round;stroke-opacity:0;stroke-width:0.24} .st17 {fill:#d9958f;fill-opacity:0;stroke:#612621;stroke-linecap:round;stroke-linejoin:round;stroke-width:0.24} .st18 {marker-start:url(#mrkr5-164);stroke:#612621;stroke-dasharray:0.75,1.5;stroke-linecap:round;stroke-linejoin:round;stroke-width:0.75} .st19 {fill:#612621;fill-opacity:1;stroke:#612621;stroke-opacity:1;stroke-width:0.22935779816514} .st20 {marker-start:url(#mrkr5-175);stroke:#9c4a09;stroke-dasharray:0.75,1.5;stroke-linecap:round;stroke-linejoin:round;stroke-width:0.75} .st21 {fill:#9c4a09;fill-opacity:1;stroke:#9c4a09;stroke-opacity:1;stroke-width:0.22935779816514} .st22 {stroke:#9c4a09;stroke-dasharray:0.75,1.5;stroke-linecap:round;stroke-linejoin:round;stroke-width:0.75} .st23 {fill:#ea700d;font-size:1em} .st24 {font-size:1em} .st25 {fill:#9c4a09;font-family:Calibri;font-size:1.5em;font-style:italic;font-weight:bold} .st26 {font-size:1em;font-style:normal;font-weight:normal} .st27 {fill:#ea700d;font-family:Consolas;font-size:0.666672em;font-style:normal;font-weight:normal} .st28 {font-family:Consolas;font-size:0.666672em;font-style:normal;font-weight:normal} .st29 {fill:#923931;font-family:Consolas;font-size:0.666672em;font-style:normal} .st30 {fill:#e5b9b5;fill-opacity:0.8;stroke:#612621;stroke-linecap:round;stroke-linejoin:round;stroke-width:1.5} .st31 {fill:#923931;font-family:Calibri;font-size:1.5em;font-style:italic} .st32 {stroke:#000000;stroke-linecap:round;stroke-linejoin:round;stroke-width:0.75} .st33 {font-family:Consolas;font-size:1em;font-weight:bold} .st34 {marker-end:url(#mrkr5-364);stroke:#612621;stroke-dasharray:0.75,1.5;stroke-linecap:round;stroke-linejoin:round;stroke-width:0.75} .st35 {fill:#f9c499} .st36 {fill:#f9c499;stroke:#000000;stroke-linecap:round;stroke-linejoin:round;stroke-width:0.75} .st37 {font-size:1em;text-decoration:underline} .st38 {fill:#f9c499;fill-opacity:0.8;stroke:#9c4a09;stroke-linecap:round;stroke-linejoin:round;stroke-width:1.5} .st39 {fill:#9c4a09;font-family:Calibri;font-size:1.00001em;font-weight:bold} .st40 {marker-end:url(#mrkr5-394);stroke:#000000;stroke-linecap:round;stroke-linejoin:round;stroke-width:1} .st41 {fill:#000000;fill-opacity:1;stroke:#000000;stroke-opacity:1;stroke-width:0.28409090909091} .st42 {fill:#f2f2f2;stroke:#7f7f7f;stroke-linecap:round;stroke-linejoin:round;stroke-width:0.75} .st43 {fill:#7f7f7f;font-family:Calibri;font-size:1.5em;font-weight:bold} .st44 {fill:none;stroke:none;stroke-linecap:round;stroke-linejoin:round;stroke-width:0.75} .st45 {fill:#000000;font-family:Calibri;font-size:4.00001em;opacity:0.027451} .st46 {fill:none;fill-rule:evenodd;font-size:12px;overflow:visible;stroke-linecap:square;stroke-miterlimit:3} ]]> </style> <defs id="Markers"> <g id="lend5"> <path d="M 2 1 L 0 0 L 1.98117 -0.993387 C 1.67173 -0.364514 1.67301 0.372642 1.98465 1.00043 " style="stroke:none"/> </g> <marker id="mrkr5-164" class="st19" v:arrowType="5" v:arrowSize="2" v:setback="7.15" refX="7.15" orient="auto" markerUnits="strokeWidth" overflow="visible"> <use xlink:href="#lend5" transform="scale(4.36) "/> </marker> <marker id="mrkr5-175" class="st21" v:arrowType="5" v:arrowSize="2" v:setback="7.15" refX="7.15" orient="auto" markerUnits="strokeWidth" overflow="visible"> <use xlink:href="#lend5" transform="scale(4.36) "/> </marker> <marker id="mrkr5-364" class="st19" v:arrowType="5" v:arrowSize="2" v:setback="7.63" refX="-7.63" orient="auto" markerUnits="strokeWidth" overflow="visible"> <use xlink:href="#lend5" transform="scale(-4.36,-4.36) "/> </marker> <marker id="mrkr5-394" class="st41" v:arrowType="5" v:arrowSize="2" v:setback="5.8" refX="-5.8" orient="auto" markerUnits="strokeWidth" overflow="visible"> <use xlink:href="#lend5" transform="scale(-3.52,-3.52) "/> </marker> </defs> <g v:mID="0" v:index="1" v:groupContext="foregroundPage"> <title>Page 1</title> <g id="group338-1" transform="translate(650.926,-132.34) scale(-1,1)" v:mID="338" v:groupContext="group"> <title>Case 3-D.338</title> <desc>L2 Node - Switch</desc> <g id="shape339-2" v:mID="339" v:groupContext="shape" transform="translate(0,690.101) scale(1,-1)"> <title>Feuille.339</title> <path d="M0 543.48 L623.62 543.48 L602.36 557.64 L-21.26 557.64 L0 543.48 Z" class="st1"/> </g> <g id="shape340-4" v:mID="340" v:groupContext="shape" transform="translate(-21.2598,0)"> <title>Feuille.340</title> <path d="M0 543.48 L21.26 557.64 L21.26 146.62 L0 132.46 L0 543.48 Z" class="st1"/> </g> <g id="shape341-6" v:mID="341" v:groupContext="shape"> <title>Feuille.341</title> <rect x="0" y="146.618" width="623.622" height="411.024" class="st1"/> </g> <g id="shape338-8" v:mID="338" v:groupContext="groupContent"> <text x="-374.05" y="166.82" transform="scale(-1,1)" class="st2" v:langID="1036">L2 Node - Switch</text> </g> </g> <g id="group681-10" transform="translate(27.3041,-205.686)" v:mID="681" v:groupContext="group"> <title>Feuille.681</title> <g id="group682-11" transform="translate(250.118,0) scale(-1,1)" v:mID="682" v:groupContext="group"> <title>Case 3-D.664</title> <g id="shape683-12" v:mID="683" v:groupContext="shape" transform="translate(0,1081.98) scale(1,-1)"> <title>Feuille.683</title> <path d="M0 549.14 L250.12 549.14 L237.37 557.64 L-12.75 557.64 L0 549.14 Z" class="st3"/> </g> <g id="shape684-14" v:mID="684" v:groupContext="shape" transform="translate(-12.7506,0)"> <title>Feuille.684</title> <path d="M0 549.14 L12.75 557.64 L12.75 532.84 L0 524.33 L0 549.14 Z" class="st3"/> </g> <g id="shape685-16" v:mID="685" v:groupContext="shape"> <title>Feuille.685</title> <rect x="0" y="532.839" width="250.118" height="24.8031" class="st3"/> </g> </g> <g id="group686-18" transform="translate(250.118,-3.54331) scale(-1,1)" v:mID="686" v:groupContext="group"> <title>Case 3-D.668</title> <g id="shape687-19" v:mID="687" v:groupContext="shape" transform="translate(0,1085.52) scale(1,-1)"> <title>Feuille.687</title> <path d="M0 549.14 L239 549.14 L226.25 557.64 L-12.75 557.64 L0 549.14 Z" class="st4"/> </g> <g id="shape688-21" v:mID="688" v:groupContext="shape" transform="translate(-12.7506,0)"> <title>Feuille.688</title> <path d="M0 549.14 L12.75 557.64 L12.75 536.38 L0 527.88 L0 549.14 Z" class="st4"/> </g> <g id="shape689-23" v:mID="689" v:groupContext="shape"> <title>Feuille.689</title> <rect x="0" y="536.382" width="239.004" height="21.2598" class="st4"/> </g> </g> </g> <g id="shape690-25" v:mID="690" v:groupContext="shape" transform="translate(35.8081,-251.395)"> <title>Feuille.690</title> <desc>L2 Header DST : 00:0C:DE:AD:BE:EF SRC : 50:46:5D:E8:1B:C8</desc> <rect x="0" y="502.721" width="255.118" height="54.9213" rx="5.66929" ry="5.66929" class="st5"/> <text x="90.44" y="521.78" class="st6" v:langID="1036">L2 Header<tspan x="51.68" dy="0.9em" class="st7">DST </tspan><tspan class="st7">: </tspan><tspan class="st7">00</tspan><tspan class="st7">:</tspan><tspan class="st7">0</tspan><tspan class="st7">C</tspan><tspan class="st7">:</tspan><tspan class="st7">DE</tspan><tspan class="st7">:</tspan><tspan class="st7">AD</tspan><tspan class="st7">:</tspan><tspan class="st7">BE</tspan><tspan class="st7">:</tspan><tspan class="st7">EF</tspan><tspan x="51.68" dy="1.1em" class="st8">SRC </tspan><tspan class="st8">: </tspan><tspan class="st8">50</tspan><tspan class="st8">:</tspan><tspan class="st8">46</tspan><tspan class="st8">:</tspan><tspan class="st8">5</tspan><tspan class="st8">D</tspan><tspan class="st8">:</tspan><tspan class="st8">E</tspan><tspan class="st8">8</tspan><tspan class="st8">:</tspan><tspan class="st8">1</tspan><tspan class="st8">B</tspan><tspan class="st8">:</tspan><tspan class="st8">C</tspan><tspan class="st8">8</tspan></text> </g> <g id="shape691-59" v:mID="691" v:groupContext="shape" transform="translate(458.311,-441.316)"> <title>Feuille.691</title> <desc>Forward frame to port where L2 dest address is.</desc> <rect x="0" y="505.201" width="162.116" height="52.4409" rx="5.66929" ry="5.66929" class="st5"/> <text x="17.01" y="527.22" class="st9" v:langID="1036">Forward frame to <tspan class="st10">port</tspan> <tspan x="8.37" dy="1.2em" class="st11">where L</tspan><tspan class="st11">2 </tspan><tspan class="st11">dest address is</tspan>.</text> </g> <g id="group693-66" transform="translate(27.3041,-151.828)" v:mID="693" v:groupContext="group"> <title>Feuille.693</title> <g id="group694-67" transform="translate(250.118,0) scale(-1,1)" v:mID="694" v:groupContext="group"> <title>Case 3-D.308</title> <g id="shape695-68" v:mID="695" v:groupContext="shape" transform="translate(0,1081.98) scale(1,-1)"> <title>Feuille.695</title> <path d="M0 549.14 L250.12 549.14 L237.37 557.64 L-12.75 557.64 L0 549.14 Z" class="st3"/> </g> <g id="shape696-70" v:mID="696" v:groupContext="shape" transform="translate(-12.7506,0)"> <title>Feuille.696</title> <path d="M0 549.14 L12.75 557.64 L12.75 532.84 L0 524.33 L0 549.14 Z" class="st3"/> </g> <g id="shape697-72" v:mID="697" v:groupContext="shape"> <title>Feuille.697</title> <rect x="0" y="532.839" width="250.118" height="24.8031" class="st3"/> </g> </g> <g id="group698-74" transform="translate(250.118,-3.54331) scale(-1,1)" v:mID="698" v:groupContext="group"> <title>Case 3-D.312</title> <g id="shape699-75" v:mID="699" v:groupContext="shape" transform="translate(0,1085.52) scale(1,-1)"> <title>Feuille.699</title> <path d="M0 549.14 L239 549.14 L226.25 557.64 L-12.75 557.64 L0 549.14 Z" class="st12"/> </g> <g id="shape700-77" v:mID="700" v:groupContext="shape" transform="translate(-12.7506,0)"> <title>Feuille.700</title> <path d="M0 549.14 L12.75 557.64 L12.75 536.38 L0 527.88 L0 549.14 Z" class="st12"/> </g> <g id="shape701-79" v:mID="701" v:groupContext="shape"> <title>Feuille.701</title> <rect x="0" y="536.382" width="239.004" height="21.2598" class="st12"/> </g> </g> <g id="group702-81" transform="translate(250.118,-7.08661) scale(-1,1)" v:mID="702" v:groupContext="group"> <title>Case 3-D.316</title> <g id="shape703-82" v:mID="703" v:groupContext="shape" transform="translate(0,1089.06) scale(1,-1)"> <title>Feuille.703</title> <path d="M0 549.14 L213.99 549.14 L201.24 557.64 L-12.75 557.64 L0 549.14 Z" class="st13"/> </g> <g id="shape704-84" v:mID="704" v:groupContext="shape" transform="translate(-12.7506,0)"> <title>Feuille.704</title> <path d="M0 549.14 L12.75 557.64 L12.75 539.93 L0 531.42 L0 549.14 Z" class="st13"/> </g> <g id="shape705-86" v:mID="705" v:groupContext="shape"> <title>Feuille.705</title> <rect x="0" y="539.925" width="213.99" height="17.7165" class="st13"/> </g> </g> <g id="group706-88" transform="translate(250.118,-10.6299) scale(-1,1)" v:mID="706" v:groupContext="group"> <title>Case 3-D.320</title> <g id="shape707-89" v:mID="707" v:groupContext="shape" transform="translate(0,1092.61) scale(1,-1)"> <title>Feuille.707</title> <path d="M0 549.14 L194.54 549.14 L181.79 557.64 L-12.75 557.64 L0 549.14 Z" class="st14"/> </g> <g id="shape708-91" v:mID="708" v:groupContext="shape" transform="translate(-12.7506,0)"> <title>Feuille.708</title> <path d="M0 549.14 L12.75 557.64 L12.75 543.47 L0 534.96 L0 549.14 Z" class="st14"/> </g> <g id="shape709-93" v:mID="709" v:groupContext="shape"> <title>Feuille.709</title> <rect x="0" y="543.469" width="194.537" height="14.1732" class="st14"/> </g> </g> </g> <g id="group735-95" transform="translate(5.11995,-95.1349)" v:mID="735" v:groupContext="group"> <title>Feuille.735</title> <g id="group736-96" transform="translate(22.2325,0) scale(-1,1)" v:mID="736" v:groupContext="group"> <title>Case 3-D.296</title> <g id="shape737-97" v:mID="737" v:groupContext="shape" transform="translate(0,1078.43) scale(1,-1)"> <title>Feuille.737</title> <path d="M0 549.14 L22.23 549.14 L9.76 557.64 L-12.47 557.64 L0 549.14 Z" class="st15"/> </g> <g id="shape738-99" v:mID="738" v:groupContext="shape" transform="translate(-12.4724,0)"> <title>Feuille.738</title> <path d="M0 549.14 L12.47 557.64 L12.47 529.3 L0 520.79 L0 549.14 Z" class="st15"/> </g> <g id="shape739-101" v:mID="739" v:groupContext="shape"> <title>Feuille.739</title> <rect x="0" y="529.295" width="22.2325" height="28.3465" class="st15"/> </g> </g> <g id="group740-103" transform="translate(272.348,0) scale(-1,1)" v:mID="740" v:groupContext="group"> <title>Case 3-D.300</title> <g id="shape741-104" v:mID="741" v:groupContext="shape" transform="translate(0,1103.24) scale(1,-1)"> <title>Feuille.741</title> <path d="M0 549.14 L250.12 549.14 L237.36 557.64 L-12.76 557.64 L0 549.14 Z" class="st16"/> </g> <g id="shape742-106" v:mID="742" v:groupContext="shape" transform="translate(-12.7559,0)"> <title>Feuille.742</title> <path d="M0 549.14 L12.76 557.64 L12.76 554.1 L0 545.59 L0 549.14 Z" class="st16"/> </g> <g id="shape743-108" v:mID="743" v:groupContext="shape"> <title>Feuille.743</title> <rect x="0" y="554.099" width="250.116" height="3.54331" class="st16"/> </g> </g> <g id="group744-110" transform="translate(22.2325,-0.00726646) scale(-1,1)" v:mID="744" v:groupContext="group"> <title>Case 3-D.304</title> <g id="shape745-111" v:mID="745" v:groupContext="shape" transform="translate(0,1078.46) scale(1,-1)"> <title>Feuille.745</title> <path d="M0 549.15 L22.23 549.15 L9.76 557.64 L-12.47 557.64 L0 549.15 Z" class="st15"/> </g> <g id="shape746-113" v:mID="746" v:groupContext="shape" transform="translate(-12.4724,0)"> <title>Feuille.746</title> <path d="M0 549.15 L12.47 557.64 L12.47 529.3 L0 520.81 L0 549.15 Z" class="st15"/> </g> <g id="shape747-115" v:mID="747" v:groupContext="shape"> <title>Feuille.747</title> <rect x="0" y="529.303" width="22.2325" height="28.3392" class="st15"/> </g> </g> <g id="group748-117" transform="translate(272.35,-3.54331) scale(-1,1)" v:mID="748" v:groupContext="group"> <title>Case 3-D.308</title> <g id="shape749-118" v:mID="749" v:groupContext="shape" transform="translate(0,1081.98) scale(1,-1)"> <title>Feuille.749</title> <path d="M0 549.14 L250.12 549.14 L237.37 557.64 L-12.75 557.64 L0 549.14 Z" class="st3"/> </g> <g id="shape750-120" v:mID="750" v:groupContext="shape" transform="translate(-12.7506,0)"> <title>Feuille.750</title> <path d="M0 549.14 L12.75 557.64 L12.75 532.84 L0 524.33 L0 549.14 Z" class="st3"/> </g> <g id="shape751-122" v:mID="751" v:groupContext="shape"> <title>Feuille.751</title> <rect x="0" y="532.839" width="250.118" height="24.8031" class="st3"/> </g> </g> <g id="group752-124" transform="translate(272.35,-7.08661) scale(-1,1)" v:mID="752" v:groupContext="group"> <title>Case 3-D.312</title> <g id="shape753-125" v:mID="753" v:groupContext="shape" transform="translate(0,1085.52) scale(1,-1)"> <title>Feuille.753</title> <path d="M0 549.14 L239 549.14 L226.25 557.64 L-12.75 557.64 L0 549.14 Z" class="st12"/> </g> <g id="shape754-127" v:mID="754" v:groupContext="shape" transform="translate(-12.7506,0)"> <title>Feuille.754</title> <path d="M0 549.14 L12.75 557.64 L12.75 536.38 L0 527.88 L0 549.14 Z" class="st12"/> </g> <g id="shape755-129" v:mID="755" v:groupContext="shape"> <title>Feuille.755</title> <rect x="0" y="536.382" width="239.004" height="21.2598" class="st12"/> </g> </g> <g id="group756-131" transform="translate(272.35,-10.6299) scale(-1,1)" v:mID="756" v:groupContext="group"> <title>Case 3-D.316</title> <g id="shape757-132" v:mID="757" v:groupContext="shape" transform="translate(0,1089.06) scale(1,-1)"> <title>Feuille.757</title> <path d="M0 549.14 L213.99 549.14 L201.24 557.64 L-12.75 557.64 L0 549.14 Z" class="st13"/> </g> <g id="shape758-134" v:mID="758" v:groupContext="shape" transform="translate(-12.7506,0)"> <title>Feuille.758</title> <path d="M0 549.14 L12.75 557.64 L12.75 539.93 L0 531.42 L0 549.14 Z" class="st13"/> </g> <g id="shape759-136" v:mID="759" v:groupContext="shape"> <title>Feuille.759</title> <rect x="0" y="539.925" width="213.99" height="17.7165" class="st13"/> </g> </g> <g id="group760-138" transform="translate(272.35,-14.1732) scale(-1,1)" v:mID="760" v:groupContext="group"> <title>Case 3-D.320</title> <g id="shape761-139" v:mID="761" v:groupContext="shape" transform="translate(0,1092.61) scale(1,-1)"> <title>Feuille.761</title> <path d="M0 549.14 L194.54 549.14 L181.79 557.64 L-12.75 557.64 L0 549.14 Z" class="st14"/> </g> <g id="shape762-141" v:mID="762" v:groupContext="shape" transform="translate(-12.7506,0)"> <title>Feuille.762</title> <path d="M0 549.14 L12.75 557.64 L12.75 543.47 L0 534.96 L0 549.14 Z" class="st14"/> </g> <g id="shape763-143" v:mID="763" v:groupContext="shape"> <title>Feuille.763</title> <rect x="0" y="543.469" width="194.537" height="14.1732" class="st14"/> </g> </g> <g id="group764-145" transform="translate(283.465,0) scale(-1,1)" v:mID="764" v:groupContext="group"> <title>Case 3-D.324</title> <g id="shape765-146" v:mID="765" v:groupContext="shape" transform="translate(0,1078.43) scale(1,-1)"> <title>Feuille.765</title> <path d="M0 549.14 L283.46 549.14 L270.71 557.64 L-12.76 557.64 L0 549.14 Z" class="st17"/> </g> <g id="shape766-148" v:mID="766" v:groupContext="shape" transform="translate(-12.7559,0)"> <title>Feuille.766</title> <path d="M0 549.14 L12.76 557.64 L12.76 529.3 L0 520.79 L0 549.14 Z" class="st17"/> </g> <g id="shape767-150" v:mID="767" v:groupContext="shape"> <title>Feuille.767</title> <rect x="0" y="529.295" width="283.465" height="28.3465" class="st17"/> </g> </g> <g id="group768-152" transform="translate(283.465,-0.00726646) scale(-1,1)" v:mID="768" v:groupContext="group"> <title>Case 3-D.328</title> <g id="shape769-153" v:mID="769" v:groupContext="shape" transform="translate(0,1078.46) scale(1,-1)"> <title>Feuille.769</title> <path d="M0 549.15 L11.11 549.15 L-1.64 557.64 L-12.76 557.64 L0 549.15 Z" class="st15"/> </g> <g id="shape770-155" v:mID="770" v:groupContext="shape" transform="translate(-12.7559,0)"> <title>Feuille.770</title> <path d="M0 549.15 L12.76 557.64 L12.76 529.3 L0 520.81 L0 549.15 Z" class="st15"/> </g> <g id="shape771-157" v:mID="771" v:groupContext="shape"> <title>Feuille.771</title> <rect x="0" y="529.303" width="11.1142" height="28.3392" class="st15"/> </g> </g> </g> <g id="shape780-159" v:mID="780" v:groupContext="shape" transform="translate(584.946,405.814) rotate(90)"> <title>Feuille.780</title> <path d="M5.36 557.64 L5.72 557.64 L28.35 557.64" class="st18"/> </g> <g id="shape781-165" v:mID="781" v:groupContext="shape" transform="translate(835.056,405.814) rotate(90)"> <title>Feuille.781</title> <path d="M5.36 557.64 L5.72 557.64 L28.35 557.64" class="st18"/> </g> <g id="shape782-170" v:mID="782" v:groupContext="shape" transform="translate(584.946,351.956) rotate(90)"> <title>Feuille.782</title> <path d="M5.36 557.64 L5.72 557.64 L28.35 557.64" class="st20"/> </g> <g id="shape783-176" v:mID="783" v:groupContext="shape" transform="translate(834.992,352.105) rotate(90)"> <title>Feuille.783</title> <path d="M5.36 557.64 L5.72 557.64 L28.35 557.64" class="st20"/> </g> <g id="shape788-181" v:mID="788" v:groupContext="shape" transform="translate(335.688,861.275) rotate(175.061)"> <title>Feuille.788</title> <path d="M0 557.64 L249.96 557.64" class="st22"/> </g> <g id="shape789-184" v:mID="789" v:groupContext="shape" transform="translate(566.788,470.946) rotate(107.789)"> <title>Feuille.789</title> <path d="M0 557.64 L27.83 557.64" class="st22"/> </g> <g id="shape790-187" v:mID="790" v:groupContext="shape" transform="translate(35.8081,-330.765)"> <title>Feuille.790</title> <desc>If L2 source address is unknown, add it to look-up table with...</desc> <rect x="0" y="461.264" width="255.118" height="96.378" rx="5.66929" ry="5.66929" class="st5"/> <text x="10.04" y="480.05" class="st9" v:langID="1036">If <tspan class="st23">L</tspan><tspan class="st23">2 </tspan><tspan class="st23">source address</tspan> is unknown, add it to <tspan x="10.68" dy="1.2em" class="st24">look</tspan>-up table with <tspan class="st10">port</tspan> where frame was <tspan x="101.5" dy="1.2em" class="st24">received</tspan>.<tspan x="25.69" dy="1.2em" class="st24">Look for </tspan><tspan class="st10">outgoing port</tspan> binded to <tspan class="st11">L</tspan><tspan class="st11">2 </tspan><tspan x="21.05" dy="1.2em" class="st11">destination address</tspan> in Look-up table.</text> </g> <g id="shape787-201" v:mID="787" v:groupContext="shape" transform="translate(234.233,-449.82)"> <title>Feuille.787</title> <desc>Look-up table 50:46:5D:E8:1B:C8 | Port 1 00:0C:DE:AD:BE:EF | ...</desc> <rect x="0" y="492.445" width="209.764" height="65.1969" rx="5.66929" ry="5.66929" class="st5"/> <text x="55.76" y="512.65" class="st25" v:langID="1036">Look-up table<tspan class="st26"> </tspan><tspan x="19.11" dy="1.357em" class="st27">50</tspan><tspan class="st27">:</tspan><tspan class="st27">46</tspan><tspan class="st27">:</tspan><tspan class="st27">5</tspan><tspan class="st27">D</tspan><tspan class="st27">:</tspan><tspan class="st27">E</tspan><tspan class="st27">8</tspan><tspan class="st27">:</tspan><tspan class="st27">1</tspan><tspan class="st27">B</tspan><tspan class="st27">:</tspan><tspan class="st27">C</tspan><tspan class="st27">8</tspan><tspan class="st28"> </tspan><tspan class="st28">| </tspan><tspan class="st29">Port </tspan><tspan class="st29">1</tspan><tspan x="19.11" dy="1.209em" class="st28">00</tspan><tspan class="st28">:</tspan><tspan class="st28">0</tspan><tspan class="st28">C</tspan><tspan class="st28">:</tspan><tspan class="st28">DE</tspan><tspan class="st28">:</tspan><tspan class="st28">AD</tspan><tspan class="st28">:</tspan><tspan class="st28">BE</tspan><tspan class="st28">:</tspan><tspan class="st28">EF </tspan><tspan class="st28">| </tspan><tspan class="st29">Port </tspan><tspan class="st29">2</tspan></text> </g> <g id="shape791-239" v:mID="791" v:groupContext="shape" transform="translate(34.3907,-64.1309)"> <title>Feuille.791</title> <desc>Frame received on Port 1</desc> <rect x="0" y="534.61" width="235.559" height="23.0315" rx="5.66929" ry="5.66929" class="st30"/> <text x="26.32" y="551.53" class="st31" v:langID="1036">Frame received on <tspan class="st11">Port </tspan><tspan class="st11">1</tspan></text> </g> <g id="shape793-244" v:mID="793" v:groupContext="shape" transform="translate(-218.527,425.302) rotate(-90)"> <title>Feuille.793</title> <path d="M0 557.64 L141.73 557.64" class="st32"/> </g> <g id="shape794-247" v:mID="794" v:groupContext="shape" transform="translate(458.17,-330.765)"> <title>Feuille.794</title> <desc>L2 dest address is 00:0C:DE:AD:BE:EF, look-up table shows it’...</desc> <rect x="0" y="461.264" width="162.116" height="96.378" rx="5.66929" ry="5.66929" class="st5"/> <text x="31.13" y="488.39" class="st9" v:langID="1036">L2 dest address is <tspan x="13.88" dy="1.207em" class="st33">00</tspan><tspan class="st33">:</tspan><tspan class="st33">0</tspan><tspan class="st33">C</tspan><tspan class="st33">:</tspan><tspan class="st33">DE</tspan><tspan class="st33">:</tspan><tspan class="st33">AD</tspan><tspan class="st33">:</tspan><tspan class="st33">BE</tspan><tspan class="st33">:</tspan><tspan class="st33">EF</tspan>, <tspan x="13.89" dy="1.202em" class="st24">look</tspan>-up table shows it’s <tspan x="34.52" dy="1.2em" class="st24">binded to </tspan><tspan class="st10">Port </tspan><tspan class="st10">2</tspan></text> </g> <g id="group795-266" transform="translate(365.97,-95.4146)" v:mID="795" v:groupContext="group"> <title>Feuille.795</title> <g id="group796-267" transform="translate(22.2325,0) scale(-1,1)" v:mID="796" v:groupContext="group"> <title>Case 3-D.296</title> <g id="shape797-268" v:mID="797" v:groupContext="shape" transform="translate(0,1078.43) scale(1,-1)"> <title>Feuille.797</title> <path d="M0 549.14 L22.23 549.14 L9.76 557.64 L-12.47 557.64 L0 549.14 Z" class="st15"/> </g> <g id="shape798-270" v:mID="798" v:groupContext="shape" transform="translate(-12.4724,0)"> <title>Feuille.798</title> <path d="M0 549.14 L12.47 557.64 L12.47 529.3 L0 520.79 L0 549.14 Z" class="st15"/> </g> <g id="shape799-272" v:mID="799" v:groupContext="shape"> <title>Feuille.799</title> <rect x="0" y="529.295" width="22.2325" height="28.3465" class="st15"/> </g> </g> <g id="group800-274" transform="translate(272.348,0) scale(-1,1)" v:mID="800" v:groupContext="group"> <title>Case 3-D.300</title> <g id="shape801-275" v:mID="801" v:groupContext="shape" transform="translate(0,1103.24) scale(1,-1)"> <title>Feuille.801</title> <path d="M0 549.14 L250.12 549.14 L237.36 557.64 L-12.76 557.64 L0 549.14 Z" class="st16"/> </g> <g id="shape802-277" v:mID="802" v:groupContext="shape" transform="translate(-12.7559,0)"> <title>Feuille.802</title> <path d="M0 549.14 L12.76 557.64 L12.76 554.1 L0 545.59 L0 549.14 Z" class="st16"/> </g> <g id="shape803-279" v:mID="803" v:groupContext="shape"> <title>Feuille.803</title> <rect x="0" y="554.099" width="250.116" height="3.54331" class="st16"/> </g> </g> <g id="group804-281" transform="translate(22.2325,-0.00726646) scale(-1,1)" v:mID="804" v:groupContext="group"> <title>Case 3-D.304</title> <g id="shape805-282" v:mID="805" v:groupContext="shape" transform="translate(0,1078.46) scale(1,-1)"> <title>Feuille.805</title> <path d="M0 549.15 L22.23 549.15 L9.76 557.64 L-12.47 557.64 L0 549.15 Z" class="st15"/> </g> <g id="shape806-284" v:mID="806" v:groupContext="shape" transform="translate(-12.4724,0)"> <title>Feuille.806</title> <path d="M0 549.15 L12.47 557.64 L12.47 529.3 L0 520.81 L0 549.15 Z" class="st15"/> </g> <g id="shape807-286" v:mID="807" v:groupContext="shape"> <title>Feuille.807</title> <rect x="0" y="529.303" width="22.2325" height="28.3392" class="st15"/> </g> </g> <g id="group808-288" transform="translate(272.35,-3.54331) scale(-1,1)" v:mID="808" v:groupContext="group"> <title>Case 3-D.308</title> <g id="shape809-289" v:mID="809" v:groupContext="shape" transform="translate(0,1081.98) scale(1,-1)"> <title>Feuille.809</title> <path d="M0 549.14 L250.12 549.14 L237.37 557.64 L-12.75 557.64 L0 549.14 Z" class="st3"/> </g> <g id="shape810-291" v:mID="810" v:groupContext="shape" transform="translate(-12.7506,0)"> <title>Feuille.810</title> <path d="M0 549.14 L12.75 557.64 L12.75 532.84 L0 524.33 L0 549.14 Z" class="st3"/> </g> <g id="shape811-293" v:mID="811" v:groupContext="shape"> <title>Feuille.811</title> <rect x="0" y="532.839" width="250.118" height="24.8031" class="st3"/> </g> </g> <g id="group812-295" transform="translate(272.35,-7.08661) scale(-1,1)" v:mID="812" v:groupContext="group"> <title>Case 3-D.312</title> <g id="shape813-296" v:mID="813" v:groupContext="shape" transform="translate(0,1085.52) scale(1,-1)"> <title>Feuille.813</title> <path d="M0 549.14 L239 549.14 L226.25 557.64 L-12.75 557.64 L0 549.14 Z" class="st12"/> </g> <g id="shape814-298" v:mID="814" v:groupContext="shape" transform="translate(-12.7506,0)"> <title>Feuille.814</title> <path d="M0 549.14 L12.75 557.64 L12.75 536.38 L0 527.88 L0 549.14 Z" class="st12"/> </g> <g id="shape815-300" v:mID="815" v:groupContext="shape"> <title>Feuille.815</title> <rect x="0" y="536.382" width="239.004" height="21.2598" class="st12"/> </g> </g> <g id="group816-302" transform="translate(272.35,-10.6299) scale(-1,1)" v:mID="816" v:groupContext="group"> <title>Case 3-D.316</title> <g id="shape817-303" v:mID="817" v:groupContext="shape" transform="translate(0,1089.06) scale(1,-1)"> <title>Feuille.817</title> <path d="M0 549.14 L213.99 549.14 L201.24 557.64 L-12.75 557.64 L0 549.14 Z" class="st13"/> </g> <g id="shape818-305" v:mID="818" v:groupContext="shape" transform="translate(-12.7506,0)"> <title>Feuille.818</title> <path d="M0 549.14 L12.75 557.64 L12.75 539.93 L0 531.42 L0 549.14 Z" class="st13"/> </g> <g id="shape819-307" v:mID="819" v:groupContext="shape"> <title>Feuille.819</title> <rect x="0" y="539.925" width="213.99" height="17.7165" class="st13"/> </g> </g> <g id="group820-309" transform="translate(272.35,-14.1732) scale(-1,1)" v:mID="820" v:groupContext="group"> <title>Case 3-D.320</title> <g id="shape821-310" v:mID="821" v:groupContext="shape" transform="translate(0,1092.61) scale(1,-1)"> <title>Feuille.821</title> <path d="M0 549.14 L194.54 549.14 L181.79 557.64 L-12.75 557.64 L0 549.14 Z" class="st14"/> </g> <g id="shape822-312" v:mID="822" v:groupContext="shape" transform="translate(-12.7506,0)"> <title>Feuille.822</title> <path d="M0 549.14 L12.75 557.64 L12.75 543.47 L0 534.96 L0 549.14 Z" class="st14"/> </g> <g id="shape823-314" v:mID="823" v:groupContext="shape"> <title>Feuille.823</title> <rect x="0" y="543.469" width="194.537" height="14.1732" class="st14"/> </g> </g> <g id="group824-316" transform="translate(283.465,0) scale(-1,1)" v:mID="824" v:groupContext="group"> <title>Case 3-D.324</title> <g id="shape825-317" v:mID="825" v:groupContext="shape" transform="translate(0,1078.43) scale(1,-1)"> <title>Feuille.825</title> <path d="M0 549.14 L283.46 549.14 L270.71 557.64 L-12.76 557.64 L0 549.14 Z" class="st17"/> </g> <g id="shape826-319" v:mID="826" v:groupContext="shape" transform="translate(-12.7559,0)"> <title>Feuille.826</title> <path d="M0 549.14 L12.76 557.64 L12.76 529.3 L0 520.79 L0 549.14 Z" class="st17"/> </g> <g id="shape827-321" v:mID="827" v:groupContext="shape"> <title>Feuille.827</title> <rect x="0" y="529.295" width="283.465" height="28.3465" class="st17"/> </g> </g> <g id="group828-323" transform="translate(283.465,-0.00726646) scale(-1,1)" v:mID="828" v:groupContext="group"> <title>Case 3-D.328</title> <g id="shape829-324" v:mID="829" v:groupContext="shape" transform="translate(0,1078.46) scale(1,-1)"> <title>Feuille.829</title> <path d="M0 549.15 L11.11 549.15 L-1.64 557.64 L-12.76 557.64 L0 549.15 Z" class="st15"/> </g> <g id="shape830-326" v:mID="830" v:groupContext="shape" transform="translate(-12.7559,0)"> <title>Feuille.830</title> <path d="M0 549.15 L12.76 557.64 L12.76 529.3 L0 520.81 L0 549.15 Z" class="st15"/> </g> <g id="shape831-328" v:mID="831" v:groupContext="shape"> <title>Feuille.831</title> <rect x="0" y="529.303" width="11.1142" height="28.3392" class="st15"/> </g> </g> </g> <g id="group832-330" transform="translate(388.063,-151.828)" v:mID="832" v:groupContext="group"> <title>Feuille.832</title> <g id="group833-331" transform="translate(250.118,0) scale(-1,1)" v:mID="833" v:groupContext="group"> <title>Case 3-D.308</title> <g id="shape834-332" v:mID="834" v:groupContext="shape" transform="translate(0,1081.98) scale(1,-1)"> <title>Feuille.834</title> <path d="M0 549.14 L250.12 549.14 L237.37 557.64 L-12.75 557.64 L0 549.14 Z" class="st3"/> </g> <g id="shape835-334" v:mID="835" v:groupContext="shape" transform="translate(-12.7506,0)"> <title>Feuille.835</title> <path d="M0 549.14 L12.75 557.64 L12.75 532.84 L0 524.33 L0 549.14 Z" class="st3"/> </g> <g id="shape836-336" v:mID="836" v:groupContext="shape"> <title>Feuille.836</title> <rect x="0" y="532.839" width="250.118" height="24.8031" class="st3"/> </g> </g> <g id="group837-338" transform="translate(250.118,-3.54331) scale(-1,1)" v:mID="837" v:groupContext="group"> <title>Case 3-D.312</title> <g id="shape838-339" v:mID="838" v:groupContext="shape" transform="translate(0,1085.52) scale(1,-1)"> <title>Feuille.838</title> <path d="M0 549.14 L239 549.14 L226.25 557.64 L-12.75 557.64 L0 549.14 Z" class="st12"/> </g> <g id="shape839-341" v:mID="839" v:groupContext="shape" transform="translate(-12.7506,0)"> <title>Feuille.839</title> <path d="M0 549.14 L12.75 557.64 L12.75 536.38 L0 527.88 L0 549.14 Z" class="st12"/> </g> <g id="shape840-343" v:mID="840" v:groupContext="shape"> <title>Feuille.840</title> <rect x="0" y="536.382" width="239.004" height="21.2598" class="st12"/> </g> </g> <g id="group841-345" transform="translate(250.118,-7.08661) scale(-1,1)" v:mID="841" v:groupContext="group"> <title>Case 3-D.316</title> <g id="shape842-346" v:mID="842" v:groupContext="shape" transform="translate(0,1089.06) scale(1,-1)"> <title>Feuille.842</title> <path d="M0 549.14 L213.99 549.14 L201.24 557.64 L-12.75 557.64 L0 549.14 Z" class="st13"/> </g> <g id="shape843-348" v:mID="843" v:groupContext="shape" transform="translate(-12.7506,0)"> <title>Feuille.843</title> <path d="M0 549.14 L12.75 557.64 L12.75 539.93 L0 531.42 L0 549.14 Z" class="st13"/> </g> <g id="shape844-350" v:mID="844" v:groupContext="shape"> <title>Feuille.844</title> <rect x="0" y="539.925" width="213.99" height="17.7165" class="st13"/> </g> </g> <g id="group845-352" transform="translate(250.118,-10.6299) scale(-1,1)" v:mID="845" v:groupContext="group"> <title>Case 3-D.320</title> <g id="shape846-353" v:mID="846" v:groupContext="shape" transform="translate(0,1092.61) scale(1,-1)"> <title>Feuille.846</title> <path d="M0 549.14 L194.54 549.14 L181.79 557.64 L-12.75 557.64 L0 549.14 Z" class="st14"/> </g> <g id="shape847-355" v:mID="847" v:groupContext="shape" transform="translate(-12.7506,0)"> <title>Feuille.847</title> <path d="M0 549.14 L12.75 557.64 L12.75 543.47 L0 534.96 L0 549.14 Z" class="st14"/> </g> <g id="shape848-357" v:mID="848" v:groupContext="shape"> <title>Feuille.848</title> <rect x="0" y="543.469" width="194.537" height="14.1732" class="st14"/> </g> </g> </g> <g id="shape849-359" v:mID="849" v:groupContext="shape" transform="translate(945.857,405.921) rotate(90)"> <title>Feuille.849</title> <path d="M0 557.64 L22.62 557.64" class="st34"/> </g> <g id="shape850-365" v:mID="850" v:groupContext="shape" transform="translate(1195.97,405.921) rotate(90)"> <title>Feuille.850</title> <path d="M0 557.64 L22.62 557.64" class="st34"/> </g> <g id="shape851-370" v:mID="851" v:groupContext="shape" transform="translate(389.922,-64.1309)"> <title>Feuille.851</title> <desc>Frame sent on Port 2</desc> <rect x="0" y="534.61" width="235.559" height="23.0315" rx="5.66929" ry="5.66929" class="st30"/> <text x="41.3" y="551.53" class="st31" v:langID="1036">Frame sent on <tspan class="st11">Port </tspan><tspan class="st11">2</tspan></text> </g> <g id="group862-375" transform="translate(83.997,-451.237)" v:mID="862" v:groupContext="group"> <title>Commutateur groupe de travail.55</title> <g id="shape863-376" v:mID="863" v:groupContext="shape" transform="translate(0,-5.56388)"> <title>Feuille.863</title> <path d="M62.36 490.82 L15.59 490.82 L0 525.82 L0 557.64 L77.95 557.64 L77.95 525.82 L62.36 490.82 Z" class="st35"/> <path d="M62.36 490.82 L15.59 490.82 L0 525.82 L0 557.64 L77.95 557.64 L77.95 525.82 L62.36 490.82" class="st32"/> <path d="M0 525.82 L77.95 525.82" class="st32"/> </g> <g id="shape864-380" v:mID="864" v:groupContext="shape" transform="translate(10.8525,-40.8172)"> <title>Feuille.864</title> <path d="M46.66 547.81 L42.15 551.17 L48.34 551.15 L53.61 546.37 L45.94 541.65 L40.46 541.66 L45.91 544.97 L26.61 545.02 L26.53 547.88 L46.66 547.81 ZM43.61 535.35 L39.96 538.7 L45.15 538.69 L49.3 533.93 L42.74 529.19 L38.28 529.19 L42.87 532.51 L26.97 532.52 L26.89 535.37 L43.61 535.35 ZM11.61 538.85 L16.73 535.48 L11.8 535.49 L4.57 540.29 L9.15 545.06 L14.9 545.04 L10.91 541.71 L29.3 541.67 L29.27 538.82 L11.61 538.85 ZM8.3 551.44 L14.3 548.05 L8.36 548.07 L0 552.89 L5.71 557.64 L12.47 557.61 L7.61 554.3 L29.41 554.2 L29.39 551.35 L8.3 551.44 Z" class="st36"/> </g> </g> <g id="shape1060-382" v:mID="1060" v:groupContext="shape" transform="translate(354.717,-217.379)"> <title>Feuille.1060</title> <desc>Everything kept as received.</desc> <rect x="0" y="522.209" width="283.465" height="35.4331" rx="5.66929" ry="5.66929" class="st5"/> <text x="61.87" y="544.13" class="st9" v:langID="1036"><tspan class="st37">Everything kept as received</tspan>.</text> </g> <g id="shape1068-386" v:mID="1068" v:groupContext="shape" transform="translate(58.1111,-185.631)"> <title>Feuille.1068</title> <desc>Read L2 Header</desc> <rect x="0" y="536.666" width="188.504" height="20.9764" rx="5.66929" ry="5.66929" class="st38"/> <text x="55.24" y="550.75" class="st39" v:langID="1036">Read L2 Header</text> </g> <g id="shape1069-389" v:mID="1069" v:groupContext="shape" v:layerMember="0" transform="translate(303.682,-281.158)"> <title>Lien dynamique</title> <path d="M0 550.56 C0 508.04 17.69 457.76 35.41 457.76 C52.28 457.76 69.17 503.33 70.75 544.4 L70.75 544.76" class="st40"/> </g> <g id="shape1071-395" v:mID="1071" v:groupContext="shape" transform="translate(0.375,-65.0325)"> <title>Feuille.1071</title> <desc>1</desc> <rect x="0" y="536.414" width="21.2598" height="21.2283" rx="10.6142" ry="10.6142" class="st42"/> <text x="6.07" y="552.43" class="st43" v:langID="1036">1</text> </g> <g id="shape1072-398" v:mID="1072" v:groupContext="shape" transform="translate(0.375,-185.505)"> <title>Feuille.1072</title> <desc>2</desc> <rect x="0" y="536.414" width="21.2598" height="21.2283" rx="10.6142" ry="10.6142" class="st42"/> <text x="6.07" y="552.43" class="st43" v:langID="1036">2</text> </g> <g id="shape1073-401" v:mID="1073" v:groupContext="shape" transform="translate(0.375,-368.34)"> <title>Feuille.1073</title> <desc>3</desc> <rect x="0" y="536.414" width="21.2598" height="21.2283" rx="10.6142" ry="10.6142" class="st42"/> <text x="6.07" y="552.43" class="st43" v:langID="1036">3</text> </g> <g id="shape1074-404" v:mID="1074" v:groupContext="shape" transform="translate(658.013,-368.34)"> <title>Feuille.1074</title> <desc>4</desc> <rect x="0" y="536.414" width="21.2598" height="21.2283" rx="10.6142" ry="10.6142" class="st42"/> <text x="6.07" y="552.43" class="st43" v:langID="1036">4</text> </g> <g id="shape1075-407" v:mID="1075" v:groupContext="shape" transform="translate(654.469,-65.9341)"> <title>Feuille.1075</title> <desc>5</desc> <rect x="0" y="536.414" width="21.2598" height="21.2283" rx="10.6142" ry="10.6142" class="st42"/> <text x="6.07" y="552.43" class="st43" v:langID="1036">5</text> </g> <g id="shape1087-410" v:mID="1087" v:groupContext="shape" transform="translate(295.097,-180.905) rotate(28.7)"> <title>Feuille.1087</title> <desc>Benjamin Bachelart &lt;ben@bashy.eu&gt;</desc> <rect x="0" y="254.838" width="518.588" height="302.804" class="st44"/> <text x="69.07" y="391.84" class="st45" v:langID="1036">Benjamin Bachelart<tspan x="89.2" dy="1.2em" class="st24">&lt;</tspan>ben@bashy.eu&gt;</text> </g> </g> </svg>