<?xml version="1.0" encoding="UTF-8" standalone="no"?>
<!-- Généré par Microsoft Visio, SVG Export l3node.svg Page 1 -->
<svg xmlns="http://www.w3.org/2000/svg" xmlns:xlink="http://www.w3.org/1999/xlink" xmlns:ev="http://www.w3.org/2001/xml-events" xmlns:v="http://schemas.microsoft.com/visio/2003/SVGExtensions/" width="9.58719in" height="7.51758in" viewBox="0 0 690.278 541.266" xml:space="preserve" color-interpolation-filters="sRGB" class="st63"> <style type="text/css"> <![CDATA[ .st1 {fill:#eeeaf2;fill-opacity:0.75;stroke:#000000;stroke-linecap:round;stroke-linejoin:round;stroke-width:0.24} .st2 {fill:#54426a;font-family:Calibri;font-size:1.5em;font-weight:bold} .st3 {fill:#ccc2d9;stroke:#54426a;stroke-linecap:round;stroke-linejoin:round;stroke-width:1.5} .st4 {fill:#54426a;font-family:Calibri;font-size:1.5em} .st5 {font-family:Consolas;font-size:0.666672em} .st6 {font-family:Consolas;font-size:0.666672em;font-weight:bold} .st7 {fill:#ddd6e5;stroke:#54426a;stroke-linecap:round;stroke-linejoin:round;stroke-width:1.5} .st8 {fill:#54426a;font-family:Calibri;font-size:1.16666em} .st9 {fill:#923931;font-size:1em;font-weight:bold} .st10 {fill:#923931;font-size:1em} .st11 {font-size:1em;font-weight:bold} .st12 {font-size:1em;font-style:italic;font-weight:bold} .st13 {fill:#f9c499;fill-opacity:0.75;stroke:#9c4a09;stroke-linecap:round;stroke-linejoin:round;stroke-width:0.24} .st14 {fill:#ddd6e5;fill-opacity:0.75;stroke:#54426a;stroke-linecap:round;stroke-linejoin:round;stroke-width:0.24} .st15 {fill:#c4d6a0;fill-opacity:0.75;stroke:#50632a;stroke-linecap:round;stroke-linejoin:round;stroke-width:0.24} .st16 {fill:#ebf1df;fill-opacity:0.75;stroke:#50632a;stroke-linecap:round;stroke-linejoin:round;stroke-width:0.24} .st17 {fill:#d9958f;fill-opacity:0.5;stroke:#612621;stroke-linecap:round;stroke-linejoin:round;stroke-opacity:0;stroke-width:0.24} .st18 {fill:#d9958f;fill-opacity:0.9;stroke:#612621;stroke-linecap:round;stroke-linejoin:round;stroke-opacity:0;stroke-width:0.24} .st19 {fill:#d9958f;fill-opacity:0;stroke:#612621;stroke-linecap:round;stroke-linejoin:round;stroke-width:0.24} .st20 {marker-start:url(#mrkr5-135);stroke:#612621;stroke-dasharray:0.75,1.5;stroke-linecap:round;stroke-linejoin:round;stroke-width:0.75} .st21 {fill:#612621;fill-opacity:1;stroke:#612621;stroke-opacity:1;stroke-width:0.22935779816514} .st22 {marker-start:url(#mrkr5-146);stroke:#54426a;stroke-dasharray:0.75,1.5;stroke-linecap:round;stroke-linejoin:round;stroke-width:0.75} .st23 {fill:#54426a;fill-opacity:1;stroke:#54426a;stroke-opacity:1;stroke-width:0.22935779816514} .st24 {stroke:#54426a;stroke-dasharray:0.75,1.5;stroke-linecap:round;stroke-linejoin:round;stroke-width:0.75} .st25 {fill:#000000;font-size:1em;font-weight:bold} .st26 {fill:#54426a;font-family:Calibri;font-size:1.5em;font-style:italic;font-weight:bold} .st27 {font-size:1em;font-style:normal;font-weight:normal} .st28 {font-family:Consolas;font-size:0.666672em;font-style:normal} .st29 {font-family:Consolas;font-size:0.666672em;font-style:normal;font-weight:normal} .st30 {fill:#923931;font-family:Consolas;font-size:0.666672em;font-style:normal} .st31 {fill:#923931;font-family:Consolas;font-size:0.666672em;font-style:normal;font-weight:normal} .st32 {fill:#e5b9b5;fill-opacity:0.8;stroke:#612621;stroke-linecap:round;stroke-linejoin:round;stroke-width:1.5} .st33 {fill:#923931;font-family:Calibri;font-size:1.5em;font-style:italic} .st34 {stroke:#000000;stroke-linecap:round;stroke-linejoin:round;stroke-width:0.75} .st35 {fill:#923931;fill-opacity:0.9;stroke:#612621;stroke-linecap:round;stroke-linejoin:round;stroke-opacity:0;stroke-width:0.24} .st36 {fill:#ea700d;fill-opacity:0.75;stroke:#9c4a09;stroke-linecap:round;stroke-linejoin:round;stroke-width:0.24} .st37 {marker-end:url(#mrkr5-344);stroke:#612621;stroke-dasharray:0.75,1.5;stroke-linecap:round;stroke-linejoin:round;stroke-width:0.75} .st38 {fill:#ccc2d9;stroke:#000000;stroke-linecap:round;stroke-linejoin:round;stroke-width:0.75} .st39 {fill:#ffffff;fill-opacity:0.75;stroke:#54426a;stroke-linecap:round;stroke-linejoin:round;stroke-width:0.24} .st40 {font-size:0.777771em;font-style:normal;font-weight:normal} .st41 {fill:#9c4a09;font-size:0.777771em;font-style:normal;font-weight:normal} .st42 {fill:#0c0c0c;font-family:Consolas;font-size:0.666672em;font-style:normal;font-weight:normal} .st43 {fill:#9c4a09;font-family:Consolas;font-size:0.666672em;font-style:normal} .st44 {fill:#9c4a09;font-family:Consolas;font-size:0.666672em;font-style:normal;font-weight:normal} .st45 {fill:none;stroke:#9c4a09;stroke-linecap:round;stroke-linejoin:round;stroke-width:0.75} .st46 {fill:#ffffff;fill-opacity:0.75;stroke:#9c4a09;stroke-linecap:round;stroke-linejoin:round;stroke-width:0.24} .st47 {fill:#f9c499;stroke:#9c4a09;stroke-linecap:round;stroke-linejoin:round;stroke-width:1.5} .st48 {fill:#9c4a09;font-family:Calibri;font-size:0.833336em} .st49 {fill:#54426a;font-size:1em;font-weight:bold} .st50 {font-size:1em} .st51 {fill:#54426a;font-size:1em;font-weight:bold;text-decoration:underline} .st52 {marker-end:url(#mrkr5-474);stroke:#9c4a09;stroke-dasharray:0.75,1.5;stroke-linecap:round;stroke-linejoin:round;stroke-width:0.75} .st53 {fill:#9c4a09;fill-opacity:1;stroke:#9c4a09;stroke-opacity:1;stroke-width:0.22935779816514} .st54 {fill:#ccc2d9;fill-opacity:0.8;stroke:#54426a;stroke-linecap:round;stroke-linejoin:round;stroke-width:1.5} .st55 {fill:#54426a;font-family:Calibri;font-size:1.00001em;font-weight:bold} .st56 {marker-end:url(#mrkr5-488);stroke:#54426a;stroke-dasharray:0.75,1.5;stroke-linecap:round;stroke-linejoin:round;stroke-width:0.75} .st57 {marker-end:url(#mrkr5-502);stroke:#000000;stroke-linecap:round;stroke-linejoin:round;stroke-width:1} .st58 {fill:#000000;fill-opacity:1;stroke:#000000;stroke-opacity:1;stroke-width:0.28409090909091} .st59 {fill:#f2f2f2;stroke:#7f7f7f;stroke-linecap:round;stroke-linejoin:round;stroke-width:0.75} .st60 {fill:#7f7f7f;font-family:Calibri;font-size:1.5em;font-weight:bold} .st61 {fill:none;stroke:none;stroke-linecap:round;stroke-linejoin:round;stroke-width:0.75} .st62 {fill:#000000;font-family:Calibri;font-size:4.00001em;opacity:0.027451} .st63 {fill:none;fill-rule:evenodd;font-size:12px;overflow:visible;stroke-linecap:square;stroke-miterlimit:3} ]]> </style> <defs id="Markers"> <g id="lend5"> <path d="M 2 1 L 0 0 L 1.98117 -0.993387 C 1.67173 -0.364514 1.67301 0.372642 1.98465 1.00043 " style="stroke:none"/> </g> <marker id="mrkr5-135" class="st21" v:arrowType="5" v:arrowSize="2" v:setback="7.15" refX="7.15" orient="auto" markerUnits="strokeWidth" overflow="visible"> <use xlink:href="#lend5" transform="scale(4.36) "/> </marker> <marker id="mrkr5-146" class="st23" v:arrowType="5" v:arrowSize="2" v:setback="7.15" refX="7.15" orient="auto" markerUnits="strokeWidth" overflow="visible"> <use xlink:href="#lend5" transform="scale(4.36) "/> </marker> <marker id="mrkr5-344" class="st21" v:arrowType="5" v:arrowSize="2" v:setback="7.63" refX="-7.63" orient="auto" markerUnits="strokeWidth" overflow="visible"> <use xlink:href="#lend5" transform="scale(-4.36,-4.36) "/> </marker> <marker id="mrkr5-474" class="st53" v:arrowType="5" v:arrowSize="2" v:setback="7.63" refX="-7.63" orient="auto" markerUnits="strokeWidth" overflow="visible"> <use xlink:href="#lend5" transform="scale(-4.36,-4.36) "/> </marker> <marker id="mrkr5-488" class="st23" v:arrowType="5" v:arrowSize="2" v:setback="7.63" refX="-7.63" orient="auto" markerUnits="strokeWidth" overflow="visible"> <use xlink:href="#lend5" transform="scale(-4.36,-4.36) "/> </marker> <marker id="mrkr5-502" class="st58" v:arrowType="5" v:arrowSize="2" v:setback="5.8" refX="-5.8" orient="auto" markerUnits="strokeWidth" overflow="visible"> <use xlink:href="#lend5" transform="scale(-3.52,-3.52) "/> </marker> </defs> <g v:mID="0" v:index="1" v:groupContext="foregroundPage"> <title>Page 1</title> <g id="group865-1" transform="translate(650.926,-115.964) scale(-1,1)" v:mID="865" v:groupContext="group"> <title>Case 3-D.865</title> <desc>L3 Node - Router</desc> <g id="shape866-2" v:mID="866" v:groupContext="shape" transform="translate(0,657.349) scale(1,-1)"> <title>Feuille.866</title> <path d="M0 527.11 L623.62 527.11 L602.36 541.27 L-21.26 541.27 L0 527.11 Z" class="st1"/> </g> <g id="shape867-4" v:mID="867" v:groupContext="shape" transform="translate(-21.2598,0)"> <title>Feuille.867</title> <path d="M0 527.11 L21.26 541.27 L21.26 130.24 L0 116.08 L0 527.11 Z" class="st1"/> </g> <g id="shape868-6" v:mID="868" v:groupContext="shape"> <title>Feuille.868</title> <rect x="0" y="130.242" width="623.622" height="411.024" class="st1"/> </g> <g id="shape865-8" v:mID="865" v:groupContext="groupContent"> <text x="-374.75" y="150.44" transform="scale(-1,1)" class="st2" v:langID="1036">L3 Node - Router</text> </g> </g> <g id="shape878-10" v:mID="878" v:groupContext="shape" transform="translate(35.8081,-235.019)"> <title>Feuille.878</title> <desc>L3 Header DST : 172.17.100.43</desc> <rect x="0" y="486.345" width="255.118" height="54.9213" rx="5.66929" ry="5.66929" class="st3"/> <text x="90.44" y="510.21" class="st4" v:langID="1036">L3 Header<tspan x="64.88" dy="1.2em" class="st5">DST </tspan><tspan class="st5">: </tspan><tspan class="st6">172</tspan><tspan class="st6">.</tspan><tspan class="st6">17</tspan><tspan class="st6">.</tspan><tspan class="st6">100</tspan><tspan class="st6">.</tspan><tspan class="st6">43</tspan></text> </g> <g id="shape879-22" v:mID="879" v:groupContext="shape" transform="translate(470.655,-339.901)"> <title>Feuille.879</title> <desc>Forward packet to port where L3 dest address is. If L3 dest a...</desc> <rect x="0" y="467.565" width="162.116" height="73.7008" rx="5.66929" ry="5.66929" class="st7"/> <text x="15.02" y="483.42" class="st8" v:langID="1036">Forward packet to <tspan class="st9">port</tspan><tspan class="st10"> </tspan><tspan x="8.37" dy="1.2em" class="st11">where L</tspan><tspan class="st11">3 </tspan><tspan class="st11">dest address is</tspan>.<tspan x="10.21" dy="1.2em" class="st12">If L</tspan><tspan class="st12">3 </tspan><tspan class="st12">dest address has no </tspan><tspan x="14.73" dy="1.2em" class="st12">entry</tspan><tspan class="st12">, </tspan><tspan class="st12">drop the packet</tspan><tspan class="st12">.</tspan></text> </g> <g id="group880-37" transform="translate(27.3041,-135.452)" v:mID="880" v:groupContext="group"> <title>Feuille.880</title> <g id="group881-38" transform="translate(250.118,0) scale(-1,1)" v:mID="881" v:groupContext="group"> <title>Case 3-D.308</title> <g id="shape882-39" v:mID="882" v:groupContext="shape" transform="translate(0,1049.22) scale(1,-1)"> <title>Feuille.882</title> <path d="M0 532.76 L250.12 532.76 L237.37 541.27 L-12.75 541.27 L0 532.76 Z" class="st13"/> </g> <g id="shape883-41" v:mID="883" v:groupContext="shape" transform="translate(-12.7506,0)"> <title>Feuille.883</title> <path d="M0 532.76 L12.75 541.27 L12.75 516.46 L0 507.96 L0 532.76 Z" class="st13"/> </g> <g id="shape884-43" v:mID="884" v:groupContext="shape"> <title>Feuille.884</title> <rect x="0" y="516.463" width="250.118" height="24.8031" class="st13"/> </g> </g> <g id="group885-45" transform="translate(250.118,-3.54331) scale(-1,1)" v:mID="885" v:groupContext="group"> <title>Case 3-D.312</title> <g id="shape886-46" v:mID="886" v:groupContext="shape" transform="translate(0,1052.77) scale(1,-1)"> <title>Feuille.886</title> <path d="M0 532.76 L239 532.76 L226.25 541.27 L-12.75 541.27 L0 532.76 Z" class="st14"/> </g> <g id="shape887-48" v:mID="887" v:groupContext="shape" transform="translate(-12.7506,0)"> <title>Feuille.887</title> <path d="M0 532.76 L12.75 541.27 L12.75 520.01 L0 511.5 L0 532.76 Z" class="st14"/> </g> <g id="shape888-50" v:mID="888" v:groupContext="shape"> <title>Feuille.888</title> <rect x="0" y="520.006" width="239.004" height="21.2598" class="st14"/> </g> </g> <g id="group889-52" transform="translate(250.118,-7.08661) scale(-1,1)" v:mID="889" v:groupContext="group"> <title>Case 3-D.316</title> <g id="shape890-53" v:mID="890" v:groupContext="shape" transform="translate(0,1056.31) scale(1,-1)"> <title>Feuille.890</title> <path d="M0 532.76 L213.99 532.76 L201.24 541.27 L-12.75 541.27 L0 532.76 Z" class="st15"/> </g> <g id="shape891-55" v:mID="891" v:groupContext="shape" transform="translate(-12.7506,0)"> <title>Feuille.891</title> <path d="M0 532.76 L12.75 541.27 L12.75 523.55 L0 515.05 L0 532.76 Z" class="st15"/> </g> <g id="shape892-57" v:mID="892" v:groupContext="shape"> <title>Feuille.892</title> <rect x="0" y="523.549" width="213.99" height="17.7165" class="st15"/> </g> </g> <g id="group893-59" transform="translate(250.118,-10.6299) scale(-1,1)" v:mID="893" v:groupContext="group"> <title>Case 3-D.320</title> <g id="shape894-60" v:mID="894" v:groupContext="shape" transform="translate(0,1059.85) scale(1,-1)"> <title>Feuille.894</title> <path d="M0 532.76 L194.54 532.76 L181.79 541.27 L-12.75 541.27 L0 532.76 Z" class="st16"/> </g> <g id="shape895-62" v:mID="895" v:groupContext="shape" transform="translate(-12.7506,0)"> <title>Feuille.895</title> <path d="M0 532.76 L12.75 541.27 L12.75 527.09 L0 518.59 L0 532.76 Z" class="st16"/> </g> <g id="shape896-64" v:mID="896" v:groupContext="shape"> <title>Feuille.896</title> <rect x="0" y="527.093" width="194.537" height="14.1732" class="st16"/> </g> </g> </g> <g id="group897-66" transform="translate(5.11995,-78.7589)" v:mID="897" v:groupContext="group"> <title>Feuille.897</title> <g id="group898-67" transform="translate(22.2325,0) scale(-1,1)" v:mID="898" v:groupContext="group"> <title>Case 3-D.296</title> <g id="shape899-68" v:mID="899" v:groupContext="shape" transform="translate(0,1045.68) scale(1,-1)"> <title>Feuille.899</title> <path d="M0 532.76 L22.23 532.76 L9.76 541.27 L-12.47 541.27 L0 532.76 Z" class="st17"/> </g> <g id="shape900-70" v:mID="900" v:groupContext="shape" transform="translate(-12.4724,0)"> <title>Feuille.900</title> <path d="M0 532.76 L12.47 541.27 L12.47 512.92 L0 504.42 L0 532.76 Z" class="st17"/> </g> <g id="shape901-72" v:mID="901" v:groupContext="shape"> <title>Feuille.901</title> <rect x="0" y="512.919" width="22.2325" height="28.3465" class="st17"/> </g> </g> <g id="group902-74" transform="translate(272.348,0) scale(-1,1)" v:mID="902" v:groupContext="group"> <title>Case 3-D.300</title> <g id="shape903-75" v:mID="903" v:groupContext="shape" transform="translate(0,1070.48) scale(1,-1)"> <title>Feuille.903</title> <path d="M0 532.76 L250.12 532.76 L237.36 541.27 L-12.76 541.27 L0 532.76 Z" class="st18"/> </g> <g id="shape904-77" v:mID="904" v:groupContext="shape" transform="translate(-12.7559,0)"> <title>Feuille.904</title> <path d="M0 532.76 L12.76 541.27 L12.76 537.72 L0 529.22 L0 532.76 Z" class="st18"/> </g> <g id="shape905-79" v:mID="905" v:groupContext="shape"> <title>Feuille.905</title> <rect x="0" y="537.723" width="250.116" height="3.54331" class="st18"/> </g> </g> <g id="group906-81" transform="translate(22.2325,-0.00726646) scale(-1,1)" v:mID="906" v:groupContext="group"> <title>Case 3-D.304</title> <g id="shape907-82" v:mID="907" v:groupContext="shape" transform="translate(0,1045.7) scale(1,-1)"> <title>Feuille.907</title> <path d="M0 532.78 L22.23 532.78 L9.76 541.27 L-12.47 541.27 L0 532.78 Z" class="st17"/> </g> <g id="shape908-84" v:mID="908" v:groupContext="shape" transform="translate(-12.4724,0)"> <title>Feuille.908</title> <path d="M0 532.78 L12.47 541.27 L12.47 512.93 L0 504.44 L0 532.78 Z" class="st17"/> </g> <g id="shape909-86" v:mID="909" v:groupContext="shape"> <title>Feuille.909</title> <rect x="0" y="512.927" width="22.2325" height="28.3392" class="st17"/> </g> </g> <g id="group910-88" transform="translate(272.35,-3.54331) scale(-1,1)" v:mID="910" v:groupContext="group"> <title>Case 3-D.308</title> <g id="shape911-89" v:mID="911" v:groupContext="shape" transform="translate(0,1049.22) scale(1,-1)"> <title>Feuille.911</title> <path d="M0 532.76 L250.12 532.76 L237.37 541.27 L-12.75 541.27 L0 532.76 Z" class="st13"/> </g> <g id="shape912-91" v:mID="912" v:groupContext="shape" transform="translate(-12.7506,0)"> <title>Feuille.912</title> <path d="M0 532.76 L12.75 541.27 L12.75 516.46 L0 507.96 L0 532.76 Z" class="st13"/> </g> <g id="shape913-93" v:mID="913" v:groupContext="shape"> <title>Feuille.913</title> <rect x="0" y="516.463" width="250.118" height="24.8031" class="st13"/> </g> </g> <g id="group914-95" transform="translate(272.35,-7.08661) scale(-1,1)" v:mID="914" v:groupContext="group"> <title>Case 3-D.312</title> <g id="shape915-96" v:mID="915" v:groupContext="shape" transform="translate(0,1052.77) scale(1,-1)"> <title>Feuille.915</title> <path d="M0 532.76 L239 532.76 L226.25 541.27 L-12.75 541.27 L0 532.76 Z" class="st14"/> </g> <g id="shape916-98" v:mID="916" v:groupContext="shape" transform="translate(-12.7506,0)"> <title>Feuille.916</title> <path d="M0 532.76 L12.75 541.27 L12.75 520.01 L0 511.5 L0 532.76 Z" class="st14"/> </g> <g id="shape917-100" v:mID="917" v:groupContext="shape"> <title>Feuille.917</title> <rect x="0" y="520.006" width="239.004" height="21.2598" class="st14"/> </g> </g> <g id="group918-102" transform="translate(272.35,-10.6299) scale(-1,1)" v:mID="918" v:groupContext="group"> <title>Case 3-D.316</title> <g id="shape919-103" v:mID="919" v:groupContext="shape" transform="translate(0,1056.31) scale(1,-1)"> <title>Feuille.919</title> <path d="M0 532.76 L213.99 532.76 L201.24 541.27 L-12.75 541.27 L0 532.76 Z" class="st15"/> </g> <g id="shape920-105" v:mID="920" v:groupContext="shape" transform="translate(-12.7506,0)"> <title>Feuille.920</title> <path d="M0 532.76 L12.75 541.27 L12.75 523.55 L0 515.05 L0 532.76 Z" class="st15"/> </g> <g id="shape921-107" v:mID="921" v:groupContext="shape"> <title>Feuille.921</title> <rect x="0" y="523.549" width="213.99" height="17.7165" class="st15"/> </g> </g> <g id="group922-109" transform="translate(272.35,-14.1732) scale(-1,1)" v:mID="922" v:groupContext="group"> <title>Case 3-D.320</title> <g id="shape923-110" v:mID="923" v:groupContext="shape" transform="translate(0,1059.85) scale(1,-1)"> <title>Feuille.923</title> <path d="M0 532.76 L194.54 532.76 L181.79 541.27 L-12.75 541.27 L0 532.76 Z" class="st16"/> </g> <g id="shape924-112" v:mID="924" v:groupContext="shape" transform="translate(-12.7506,0)"> <title>Feuille.924</title> <path d="M0 532.76 L12.75 541.27 L12.75 527.09 L0 518.59 L0 532.76 Z" class="st16"/> </g> <g id="shape925-114" v:mID="925" v:groupContext="shape"> <title>Feuille.925</title> <rect x="0" y="527.093" width="194.537" height="14.1732" class="st16"/> </g> </g> <g id="group926-116" transform="translate(283.465,0) scale(-1,1)" v:mID="926" v:groupContext="group"> <title>Case 3-D.324</title> <g id="shape927-117" v:mID="927" v:groupContext="shape" transform="translate(0,1045.68) scale(1,-1)"> <title>Feuille.927</title> <path d="M0 532.76 L283.46 532.76 L270.71 541.27 L-12.76 541.27 L0 532.76 Z" class="st19"/> </g> <g id="shape928-119" v:mID="928" v:groupContext="shape" transform="translate(-12.7559,0)"> <title>Feuille.928</title> <path d="M0 532.76 L12.76 541.27 L12.76 512.92 L0 504.42 L0 532.76 Z" class="st19"/> </g> <g id="shape929-121" v:mID="929" v:groupContext="shape"> <title>Feuille.929</title> <rect x="0" y="512.919" width="283.465" height="28.3465" class="st19"/> </g> </g> <g id="group930-123" transform="translate(283.465,-0.00726646) scale(-1,1)" v:mID="930" v:groupContext="group"> <title>Case 3-D.328</title> <g id="shape931-124" v:mID="931" v:groupContext="shape" transform="translate(0,1045.7) scale(1,-1)"> <title>Feuille.931</title> <path d="M0 532.78 L11.11 532.78 L-1.64 541.27 L-12.76 541.27 L0 532.78 Z" class="st17"/> </g> <g id="shape932-126" v:mID="932" v:groupContext="shape" transform="translate(-12.7559,0)"> <title>Feuille.932</title> <path d="M0 532.78 L12.76 541.27 L12.76 512.93 L0 504.44 L0 532.78 Z" class="st17"/> </g> <g id="shape933-128" v:mID="933" v:groupContext="shape"> <title>Feuille.933</title> <rect x="0" y="512.927" width="11.1142" height="28.3392" class="st17"/> </g> </g> </g> <g id="shape934-130" v:mID="934" v:groupContext="shape" transform="translate(568.57,405.814) rotate(90)"> <title>Feuille.934</title> <path d="M5.36 541.27 L5.72 541.27 L28.35 541.27" class="st20"/> </g> <g id="shape935-136" v:mID="935" v:groupContext="shape" transform="translate(818.68,405.814) rotate(90)"> <title>Feuille.935</title> <path d="M5.36 541.27 L5.72 541.27 L28.35 541.27" class="st20"/> </g> <g id="shape936-141" v:mID="936" v:groupContext="shape" transform="translate(579.909,351.956) rotate(90)"> <title>Feuille.936</title> <path d="M5.36 541.27 L5.72 541.27 L28.35 541.27" class="st22"/> </g> <g id="shape937-147" v:mID="937" v:groupContext="shape" transform="translate(818.616,352.105) rotate(90)"> <title>Feuille.937</title> <path d="M5.36 541.27 L5.72 541.27 L28.35 541.27" class="st22"/> </g> <g id="shape940-152" v:mID="940" v:groupContext="shape" transform="translate(574.636,249.261) rotate(84.5597)"> <title>Feuille.940</title> <path d="M0 541.27 L29.9 541.27" class="st24"/> </g> <g id="shape941-155" v:mID="941" v:groupContext="shape" transform="translate(35.8081,-314.389)"> <title>Feuille.941</title> <desc>Look for a next-hop/outgoing port to L3 destination address i...</desc> <rect x="0" y="444.888" width="255.118" height="96.378" rx="5.66929" ry="5.66929" class="st7"/> <text x="12.79" y="488.88" class="st8" v:langID="1036">Look for a <tspan class="st11">next</tspan><tspan class="st11">-</tspan><tspan class="st11">hop</tspan><tspan class="st25">/</tspan><tspan class="st9">outgoing port</tspan> to <tspan class="st11">L</tspan><tspan class="st11">3 </tspan><tspan x="21.68" dy="1.2em" class="st11">destination address</tspan> in <tspan class="st11">Routing Table</tspan></text> </g> <g id="shape942-167" v:mID="942" v:groupContext="shape" transform="translate(187.462,-424.94)"> <title>Feuille.942</title> <desc>Routing table 172.17.100.0/24 | NH 172.19.0.2 - Port 2 172.17...</desc> <rect x="0" y="467.565" width="303.307" height="73.7008" rx="5.66929" ry="5.66929" class="st7"/> <text x="100.98" y="487.77" class="st26" v:langID="1036">Routing table<tspan class="st27"> </tspan><tspan x="16.4" dy="1.357em" class="st28">172</tspan><tspan class="st28">.</tspan><tspan class="st28">17</tspan><tspan class="st28">.</tspan><tspan class="st28">100</tspan><tspan class="st28">.</tspan><tspan class="st28">0</tspan><tspan class="st28">/</tspan><tspan class="st28">24</tspan><tspan class="st29"> </tspan><tspan class="st29">| </tspan><tspan class="st29">NH </tspan><tspan class="st28">172</tspan><tspan class="st28">.</tspan><tspan class="st28">19</tspan><tspan class="st28">.</tspan><tspan class="st28">0</tspan><tspan class="st28">.</tspan><tspan class="st28">2</tspan><tspan class="st29"> </tspan><tspan class="st29">-</tspan><tspan class="st29"> </tspan><tspan class="st30">Port </tspan><tspan class="st30">2</tspan><tspan x="16.4" dy="1.202em" class="st29">172</tspan><tspan class="st29">.</tspan><tspan class="st29">17</tspan><tspan class="st29">.</tspan><tspan class="st29">101</tspan><tspan class="st29">.</tspan><tspan class="st29">0</tspan><tspan class="st29">/</tspan><tspan class="st29">24 </tspan><tspan class="st29">| </tspan><tspan class="st29">NH </tspan><tspan class="st29">172</tspan><tspan class="st29">.</tspan><tspan class="st29">19</tspan><tspan class="st29">.</tspan><tspan class="st29">0</tspan><tspan class="st29">.</tspan><tspan class="st29">6 </tspan><tspan class="st29">-</tspan><tspan class="st29"> </tspan><tspan class="st31">Port </tspan><tspan class="st31">3</tspan><tspan x="16.4" dy="1.207em" class="st29">172</tspan><tspan class="st29">.</tspan><tspan class="st29">17</tspan><tspan class="st29">.</tspan><tspan class="st29">102</tspan><tspan class="st29">.</tspan><tspan class="st29">0</tspan><tspan class="st29">/</tspan><tspan class="st29">24 </tspan><tspan class="st29">| </tspan><tspan class="st29">NH </tspan><tspan class="st29">172</tspan><tspan class="st29">.</tspan><tspan class="st29">19</tspan><tspan class="st29">.</tspan><tspan class="st29">0</tspan><tspan class="st29">.</tspan><tspan class="st29">6 </tspan><tspan class="st29">-</tspan><tspan class="st29"> </tspan><tspan class="st31">Port </tspan><tspan class="st31">3</tspan></text> </g> <g id="shape943-239" v:mID="943" v:groupContext="shape" transform="translate(34.3907,-47.7549)"> <title>Feuille.943</title> <desc>Frame received on Port 1</desc> <rect x="0" y="518.234" width="235.559" height="23.0315" rx="5.66929" ry="5.66929" class="st32"/> <text x="26.32" y="535.15" class="st33" v:langID="1036">Frame received on <tspan class="st11">Port </tspan><tspan class="st11">1</tspan></text> </g> <g id="shape944-244" v:mID="944" v:groupContext="shape" transform="translate(-202.151,425.302) rotate(-90)"> <title>Feuille.944</title> <path d="M0 541.27 L141.73 541.27" class="st34"/> </g> <g id="group947-247" transform="translate(388.202,-79.0386) scale(-1,1)" v:mID="947" v:groupContext="group"> <title>Case 3-D.296</title> <g id="shape948-248" v:mID="948" v:groupContext="shape" transform="translate(0,1045.68) scale(1,-1)"> <title>Feuille.948</title> <path d="M0 532.76 L22.23 532.76 L9.76 541.27 L-12.47 541.27 L0 532.76 Z" class="st17"/> </g> <g id="shape949-250" v:mID="949" v:groupContext="shape" transform="translate(-12.4724,0)"> <title>Feuille.949</title> <path d="M0 532.76 L12.47 541.27 L12.47 512.92 L0 504.42 L0 532.76 Z" class="st17"/> </g> <g id="shape950-252" v:mID="950" v:groupContext="shape"> <title>Feuille.950</title> <rect x="0" y="512.919" width="22.2325" height="28.3465" class="st17"/> </g> </g> <g id="group951-254" transform="translate(638.318,-79.0386) scale(-1,1)" v:mID="951" v:groupContext="group"> <title>Case 3-D.300</title> <g id="shape952-255" v:mID="952" v:groupContext="shape" transform="translate(0,1070.48) scale(1,-1)"> <title>Feuille.952</title> <path d="M0 532.76 L250.12 532.76 L237.36 541.27 L-12.76 541.27 L0 532.76 Z" class="st35"/> </g> <g id="shape953-257" v:mID="953" v:groupContext="shape" transform="translate(-12.7559,0)"> <title>Feuille.953</title> <path d="M0 532.76 L12.76 541.27 L12.76 537.72 L0 529.22 L0 532.76 Z" class="st35"/> </g> <g id="shape954-259" v:mID="954" v:groupContext="shape"> <title>Feuille.954</title> <rect x="0" y="537.723" width="250.116" height="3.54331" class="st35"/> </g> </g> <g id="group955-261" transform="translate(388.202,-79.0459) scale(-1,1)" v:mID="955" v:groupContext="group"> <title>Case 3-D.304</title> <g id="shape956-262" v:mID="956" v:groupContext="shape" transform="translate(0,1045.7) scale(1,-1)"> <title>Feuille.956</title> <path d="M0 532.78 L22.23 532.78 L9.76 541.27 L-12.47 541.27 L0 532.78 Z" class="st35"/> </g> <g id="shape957-264" v:mID="957" v:groupContext="shape" transform="translate(-12.4724,0)"> <title>Feuille.957</title> <path d="M0 532.78 L12.47 541.27 L12.47 512.93 L0 504.44 L0 532.78 Z" class="st35"/> </g> <g id="shape958-266" v:mID="958" v:groupContext="shape"> <title>Feuille.958</title> <rect x="0" y="512.927" width="22.2325" height="28.3392" class="st35"/> </g> </g> <g id="group959-268" transform="translate(638.32,-82.5819) scale(-1,1)" v:mID="959" v:groupContext="group"> <title>Case 3-D.308</title> <g id="shape960-269" v:mID="960" v:groupContext="shape" transform="translate(0,1049.22) scale(1,-1)"> <title>Feuille.960</title> <path d="M0 532.76 L250.12 532.76 L237.37 541.27 L-12.75 541.27 L0 532.76 Z" class="st36"/> </g> <g id="shape961-271" v:mID="961" v:groupContext="shape" transform="translate(-12.7506,0)"> <title>Feuille.961</title> <path d="M0 532.76 L12.75 541.27 L12.75 516.46 L0 507.96 L0 532.76 Z" class="st36"/> </g> <g id="shape962-273" v:mID="962" v:groupContext="shape"> <title>Feuille.962</title> <rect x="0" y="516.463" width="250.118" height="24.8031" class="st36"/> </g> </g> <g id="group963-275" transform="translate(638.32,-86.1252) scale(-1,1)" v:mID="963" v:groupContext="group"> <title>Case 3-D.312</title> <g id="shape964-276" v:mID="964" v:groupContext="shape" transform="translate(0,1052.77) scale(1,-1)"> <title>Feuille.964</title> <path d="M0 532.76 L239 532.76 L226.25 541.27 L-12.75 541.27 L0 532.76 Z" class="st14"/> </g> <g id="shape965-278" v:mID="965" v:groupContext="shape" transform="translate(-12.7506,0)"> <title>Feuille.965</title> <path d="M0 532.76 L12.75 541.27 L12.75 520.01 L0 511.5 L0 532.76 Z" class="st14"/> </g> <g id="shape966-280" v:mID="966" v:groupContext="shape"> <title>Feuille.966</title> <rect x="0" y="520.006" width="239.004" height="21.2598" class="st14"/> </g> </g> <g id="group967-282" transform="translate(638.32,-89.6685) scale(-1,1)" v:mID="967" v:groupContext="group"> <title>Case 3-D.316</title> <g id="shape968-283" v:mID="968" v:groupContext="shape" transform="translate(0,1056.31) scale(1,-1)"> <title>Feuille.968</title> <path d="M0 532.76 L213.99 532.76 L201.24 541.27 L-12.75 541.27 L0 532.76 Z" class="st15"/> </g> <g id="shape969-285" v:mID="969" v:groupContext="shape" transform="translate(-12.7506,0)"> <title>Feuille.969</title> <path d="M0 532.76 L12.75 541.27 L12.75 523.55 L0 515.05 L0 532.76 Z" class="st15"/> </g> <g id="shape970-287" v:mID="970" v:groupContext="shape"> <title>Feuille.970</title> <rect x="0" y="523.549" width="213.99" height="17.7165" class="st15"/> </g> </g> <g id="group971-289" transform="translate(638.32,-93.2118) scale(-1,1)" v:mID="971" v:groupContext="group"> <title>Case 3-D.320</title> <g id="shape972-290" v:mID="972" v:groupContext="shape" transform="translate(0,1059.85) scale(1,-1)"> <title>Feuille.972</title> <path d="M0 532.76 L194.54 532.76 L181.79 541.27 L-12.75 541.27 L0 532.76 Z" class="st16"/> </g> <g id="shape973-292" v:mID="973" v:groupContext="shape" transform="translate(-12.7506,0)"> <title>Feuille.973</title> <path d="M0 532.76 L12.75 541.27 L12.75 527.09 L0 518.59 L0 532.76 Z" class="st16"/> </g> <g id="shape974-294" v:mID="974" v:groupContext="shape"> <title>Feuille.974</title> <rect x="0" y="527.093" width="194.537" height="14.1732" class="st16"/> </g> </g> <g id="group975-296" transform="translate(649.434,-79.0386) scale(-1,1)" v:mID="975" v:groupContext="group"> <title>Case 3-D.324</title> <g id="shape976-297" v:mID="976" v:groupContext="shape" transform="translate(0,1045.68) scale(1,-1)"> <title>Feuille.976</title> <path d="M0 532.76 L283.46 532.76 L270.71 541.27 L-12.76 541.27 L0 532.76 Z" class="st19"/> </g> <g id="shape977-299" v:mID="977" v:groupContext="shape" transform="translate(-12.7559,0)"> <title>Feuille.977</title> <path d="M0 532.76 L12.76 541.27 L12.76 512.92 L0 504.42 L0 532.76 Z" class="st19"/> </g> <g id="shape978-301" v:mID="978" v:groupContext="shape"> <title>Feuille.978</title> <rect x="0" y="512.919" width="283.465" height="28.3465" class="st19"/> </g> </g> <g id="group979-303" transform="translate(649.434,-79.0459) scale(-1,1)" v:mID="979" v:groupContext="group"> <title>Case 3-D.328</title> <g id="shape980-304" v:mID="980" v:groupContext="shape" transform="translate(0,1045.7) scale(1,-1)"> <title>Feuille.980</title> <path d="M0 532.78 L11.11 532.78 L-1.64 541.27 L-12.76 541.27 L0 532.78 Z" class="st35"/> </g> <g id="shape981-306" v:mID="981" v:groupContext="shape" transform="translate(-12.7559,0)"> <title>Feuille.981</title> <path d="M0 532.78 L12.76 541.27 L12.76 512.93 L0 504.44 L0 532.78 Z" class="st35"/> </g> <g id="shape982-308" v:mID="982" v:groupContext="shape"> <title>Feuille.982</title> <rect x="0" y="512.927" width="11.1142" height="28.3392" class="st35"/> </g> </g> <g id="group984-310" transform="translate(388.063,-135.452)" v:mID="984" v:groupContext="group"> <title>Feuille.984</title> <g id="group985-311" transform="translate(250.118,0) scale(-1,1)" v:mID="985" v:groupContext="group"> <title>Case 3-D.308</title> <g id="shape986-312" v:mID="986" v:groupContext="shape" transform="translate(0,1049.22) scale(1,-1)"> <title>Feuille.986</title> <path d="M0 532.76 L250.12 532.76 L237.37 541.27 L-12.75 541.27 L0 532.76 Z" class="st36"/> </g> <g id="shape987-314" v:mID="987" v:groupContext="shape" transform="translate(-12.7506,0)"> <title>Feuille.987</title> <path d="M0 532.76 L12.75 541.27 L12.75 516.46 L0 507.96 L0 532.76 Z" class="st36"/> </g> <g id="shape988-316" v:mID="988" v:groupContext="shape"> <title>Feuille.988</title> <rect x="0" y="516.463" width="250.118" height="24.8031" class="st36"/> </g> </g> <g id="group989-318" transform="translate(250.118,-3.54331) scale(-1,1)" v:mID="989" v:groupContext="group"> <title>Case 3-D.312</title> <g id="shape990-319" v:mID="990" v:groupContext="shape" transform="translate(0,1052.77) scale(1,-1)"> <title>Feuille.990</title> <path d="M0 532.76 L239 532.76 L226.25 541.27 L-12.75 541.27 L0 532.76 Z" class="st14"/> </g> <g id="shape991-321" v:mID="991" v:groupContext="shape" transform="translate(-12.7506,0)"> <title>Feuille.991</title> <path d="M0 532.76 L12.75 541.27 L12.75 520.01 L0 511.5 L0 532.76 Z" class="st14"/> </g> <g id="shape992-323" v:mID="992" v:groupContext="shape"> <title>Feuille.992</title> <rect x="0" y="520.006" width="239.004" height="21.2598" class="st14"/> </g> </g> <g id="group993-325" transform="translate(250.118,-7.08661) scale(-1,1)" v:mID="993" v:groupContext="group"> <title>Case 3-D.316</title> <g id="shape994-326" v:mID="994" v:groupContext="shape" transform="translate(0,1056.31) scale(1,-1)"> <title>Feuille.994</title> <path d="M0 532.76 L213.99 532.76 L201.24 541.27 L-12.75 541.27 L0 532.76 Z" class="st15"/> </g> <g id="shape995-328" v:mID="995" v:groupContext="shape" transform="translate(-12.7506,0)"> <title>Feuille.995</title> <path d="M0 532.76 L12.75 541.27 L12.75 523.55 L0 515.05 L0 532.76 Z" class="st15"/> </g> <g id="shape996-330" v:mID="996" v:groupContext="shape"> <title>Feuille.996</title> <rect x="0" y="523.549" width="213.99" height="17.7165" class="st15"/> </g> </g> <g id="group997-332" transform="translate(250.118,-10.6299) scale(-1,1)" v:mID="997" v:groupContext="group"> <title>Case 3-D.320</title> <g id="shape998-333" v:mID="998" v:groupContext="shape" transform="translate(0,1059.85) scale(1,-1)"> <title>Feuille.998</title> <path d="M0 532.76 L194.54 532.76 L181.79 541.27 L-12.75 541.27 L0 532.76 Z" class="st16"/> </g> <g id="shape999-335" v:mID="999" v:groupContext="shape" transform="translate(-12.7506,0)"> <title>Feuille.999</title> <path d="M0 532.76 L12.75 541.27 L12.75 527.09 L0 518.59 L0 532.76 Z" class="st16"/> </g> <g id="shape1000-337" v:mID="1000" v:groupContext="shape"> <title>Feuille.1000</title> <rect x="0" y="527.093" width="194.537" height="14.1732" class="st16"/> </g> </g> </g> <g id="shape1001-339" v:mID="1001" v:groupContext="shape" transform="translate(929.481,405.921) rotate(90)"> <title>Feuille.1001</title> <path d="M0 541.27 L22.62 541.27" class="st37"/> </g> <g id="shape1002-345" v:mID="1002" v:groupContext="shape" transform="translate(1179.59,405.921) rotate(90)"> <title>Feuille.1002</title> <path d="M0 541.27 L22.62 541.27" class="st37"/> </g> <g id="shape1003-350" v:mID="1003" v:groupContext="shape" transform="translate(389.922,-47.7549)"> <title>Feuille.1003</title> <desc>Frame sent on Port 2</desc> <rect x="0" y="518.234" width="235.559" height="23.0315" rx="5.66929" ry="5.66929" class="st32"/> <text x="41.3" y="535.15" class="st33" v:langID="1036">Frame sent on <tspan class="st11">Port </tspan><tspan class="st11">2</tspan></text> </g> <g id="group1007-355" transform="translate(83.997,-434.861)" v:mID="1007" v:groupContext="group"> <title>Routeur.56</title> <g id="shape1008-356" v:mID="1008" v:groupContext="shape" transform="translate(0,-0.431566)"> <title>Feuille.1008</title> <path d="M0 472.98 L0 532.46 A38.9764 8.80649 -180 0 0 77.95 532.46 L77.95 472.98 A38.9764 8.80649 0 0 1 0 472.98 ZM77.95 472.98 A38.9764 8.80649 -180 1 0 0 472.98 A38.9764 8.80649 -180 1 0 77.95 472.98 Z" class="st38"/> </g> <g id="shape1009-358" v:mID="1009" v:groupContext="shape" transform="translate(12.303,-8.24393)"> <title>Feuille.1009</title> <path d="M28.88 533.41 L28.88 522.16 L24.35 522.16 L24.35 533.36 L19.06 528 L19.06 534.32 L26.63 541.27 L34.21 534.28 L34.21 528.03 L28.88 533.41 ZM42.09 521.87 C45.87 522.06 49.68 521.62 53.35 520.55 L53.35 516.02 C49.7 517.08 45.91 517.52 42.14 517.34 C43.94 515.67 45.75 513.85 47.54 511.89 C45.43 512.12 43.29 512.15 41.17 511.99 C38.84 514.34 36.52 516.44 34.25 518.31 C36.53 521.49 38.86 524.44 41.21 527.14 C43.31 527.3 45.42 527.27 47.52 527.04 C45.71 525.46 43.9 523.74 42.09 521.87 ZM11.26 517.38 C7.48 517.57 3.67 517.13 0 516.07 L0 520.59 C3.65 521.65 7.44 522.1 11.21 521.91 C9.41 523.76 7.6 525.47 5.81 527.04 C7.92 527.27 10.06 527.31 12.18 527.14 C14.51 524.44 16.83 521.5 19.1 518.31 C16.82 516.45 14.49 514.34 12.14 512 C10.04 512.16 7.93 512.12 5.83 511.89 C7.64 513.87 9.45 515.7 11.26 517.38 ZM24.43 503.37 L24.43 514.62 L28.96 514.62 L28.96 503.43 L34.25 508.78 L34.25 502.46 L26.68 495.52 L19.1 502.5 L19.1 508.75 L24.43 503.37 Z" class="st38"/> </g> </g> <g id="group1023-360" transform="translate(38.4183,-189.31)" v:mID="1023" v:groupContext="group"> <title>Feuille.1023</title> <g id="group1024-361" transform="translate(239.004,0) scale(-1,1)" v:mID="1024" v:groupContext="group"> <title>Case 3-D.1010</title> <g id="shape1025-362" v:mID="1025" v:groupContext="shape" transform="translate(0,1052.77) scale(1,-1)"> <title>Feuille.1025</title> <path d="M0 532.76 L239 532.76 L226.25 541.27 L-12.75 541.27 L0 532.76 Z" class="st14"/> </g> <g id="shape1026-364" v:mID="1026" v:groupContext="shape" transform="translate(-12.7506,0)"> <title>Feuille.1026</title> <path d="M0 532.76 L12.75 541.27 L12.75 520.01 L0 511.5 L0 532.76 Z" class="st14"/> </g> <g id="shape1027-366" v:mID="1027" v:groupContext="shape"> <title>Feuille.1027</title> <rect x="0" y="520.006" width="239.004" height="21.2598" class="st14"/> </g> </g> <g id="group1028-368" transform="translate(239.004,-3.54331) scale(-1,1)" v:mID="1028" v:groupContext="group"> <title>Case 3-D.1014</title> <g id="shape1029-369" v:mID="1029" v:groupContext="shape" transform="translate(0,1056.31) scale(1,-1)"> <title>Feuille.1029</title> <path d="M0 532.76 L213.99 532.76 L201.24 541.27 L-12.75 541.27 L0 532.76 Z" class="st39"/> </g> <g id="shape1030-371" v:mID="1030" v:groupContext="shape" transform="translate(-12.7506,0)"> <title>Feuille.1030</title> <path d="M0 532.76 L12.75 541.27 L12.75 523.55 L0 515.05 L0 532.76 Z" class="st39"/> </g> <g id="shape1031-373" v:mID="1031" v:groupContext="shape"> <title>Feuille.1031</title> <rect x="0" y="523.549" width="213.99" height="17.7165" class="st39"/> </g> </g> </g> <g id="shape939-375" v:mID="939" v:groupContext="shape" transform="translate(347.283,843.678) rotate(173.678)"> <title>Feuille.939</title> <path d="M0 541.27 L225.53 541.27" class="st24"/> </g> <g id="shape1035-378" v:mID="1035" v:groupContext="shape" transform="translate(383.576,-271.869)"> <title>Feuille.1035</title> <desc>ARP table - L3 -&gt; L2 resolving 172.19.0.2 | 00:0C:13:08:89:BB...</desc> <rect x="0" y="484.573" width="239.004" height="56.6929" rx="5.66929" ry="5.66929" class="st7"/> <text x="28.09" y="504.77" class="st26" v:langID="1036">ARP table<tspan class="st27"> </tspan><tspan class="st40">-</tspan><tspan class="st40"> </tspan><tspan class="st40">L</tspan><tspan class="st40">3 </tspan><tspan class="st40">-</tspan><tspan class="st40">&gt; </tspan><tspan class="st41">L</tspan><tspan class="st41">2</tspan><tspan class="st40"> </tspan><tspan class="st40">resolving</tspan><tspan x="20.53" dy="1.357em" class="st28">172</tspan><tspan class="st28">.</tspan><tspan class="st28">19</tspan><tspan class="st28">.</tspan><tspan class="st28">0</tspan><tspan class="st28">.</tspan><tspan class="st28">2</tspan><tspan class="st29"> </tspan><tspan class="st42">|</tspan><tspan class="st29"> </tspan><tspan class="st43">00</tspan><tspan class="st43">:</tspan><tspan class="st43">0</tspan><tspan class="st43">C</tspan><tspan class="st43">:</tspan><tspan class="st43">13</tspan><tspan class="st43">:</tspan><tspan class="st43">08</tspan><tspan class="st43">:</tspan><tspan class="st43">89</tspan><tspan class="st43">:</tspan><tspan class="st43">BB</tspan><tspan x="20.53" dy="1.209em" class="st29">172</tspan><tspan class="st29">.</tspan><tspan class="st29">19</tspan><tspan class="st29">.</tspan><tspan class="st29">0</tspan><tspan class="st29">.</tspan><tspan class="st29">6 </tspan><tspan class="st42">|</tspan><tspan class="st29"> </tspan><tspan class="st44">00</tspan><tspan class="st44">:</tspan><tspan class="st44">0</tspan><tspan class="st44">C</tspan><tspan class="st44">:</tspan><tspan class="st44">33</tspan><tspan class="st44">:</tspan><tspan class="st44">A</tspan><tspan class="st44">4</tspan><tspan class="st44">:</tspan><tspan class="st44">DE</tspan><tspan class="st44">:</tspan><tspan class="st44">77</tspan></text> </g> <g id="shape1039-436" v:mID="1039" v:groupContext="shape" transform="translate(324.485,-455.947)"> <title>Feuille.1039</title> <ellipse cx="49.6063" cy="530.778" rx="49.6063" ry="10.4882" class="st45"/> </g> <g id="shape1040-438" v:mID="1040" v:groupContext="shape" transform="translate(386.091,-286.042)"> <title>Feuille.1040</title> <ellipse cx="49.6063" cy="530.778" rx="49.6063" ry="10.4882" class="st45"/> </g> <g id="group1041-440" transform="translate(388.011,-189.31)" v:mID="1041" v:groupContext="group"> <title>Feuille.1041</title> <g id="group1042-441" transform="translate(250.118,0) scale(-1,1)" v:mID="1042" v:groupContext="group"> <title>Case 3-D.664</title> <g id="shape1043-442" v:mID="1043" v:groupContext="shape" transform="translate(0,1049.22) scale(1,-1)"> <title>Feuille.1043</title> <path d="M0 532.76 L250.12 532.76 L237.37 541.27 L-12.75 541.27 L0 532.76 Z" class="st36"/> </g> <g id="shape1044-444" v:mID="1044" v:groupContext="shape" transform="translate(-12.7506,0)"> <title>Feuille.1044</title> <path d="M0 532.76 L12.75 541.27 L12.75 516.46 L0 507.96 L0 532.76 Z" class="st36"/> </g> <g id="shape1045-446" v:mID="1045" v:groupContext="shape"> <title>Feuille.1045</title> <rect x="0" y="516.463" width="250.118" height="24.8031" class="st36"/> </g> </g> <g id="group1046-448" transform="translate(250.118,-3.54331) scale(-1,1)" v:mID="1046" v:groupContext="group"> <title>Case 3-D.668</title> <g id="shape1047-449" v:mID="1047" v:groupContext="shape" transform="translate(0,1052.77) scale(1,-1)"> <title>Feuille.1047</title> <path d="M0 532.76 L239 532.76 L226.25 541.27 L-12.75 541.27 L0 532.76 Z" class="st46"/> </g> <g id="shape1048-451" v:mID="1048" v:groupContext="shape" transform="translate(-12.7506,0)"> <title>Feuille.1048</title> <path d="M0 532.76 L12.75 541.27 L12.75 520.01 L0 511.5 L0 532.76 Z" class="st46"/> </g> <g id="shape1049-453" v:mID="1049" v:groupContext="shape"> <title>Feuille.1049</title> <rect x="0" y="520.006" width="239.004" height="21.2598" class="st46"/> </g> </g> </g> <g id="shape1050-455" v:mID="1050" v:groupContext="shape" transform="translate(354.664,-229.349)"> <title>Feuille.1050</title> <desc>Build L2 header with L2 destination address of L3 next-hop, a...</desc> <rect x="0" y="505.833" width="283.465" height="35.4331" rx="5.66929" ry="5.66929" class="st47"/> <text x="6.41" y="514.55" class="st48" v:langID="1036">Build L2 header with L2 destination address of <tspan class="st49">L</tspan><tspan class="st49">3 </tspan><tspan class="st49">next</tspan><tspan class="st49">-</tspan><tspan class="st49">hop</tspan>, and L2 <tspan x="19.53" dy="1.2em" class="st50">source address of out interface</tspan>. <tspan class="st51">L</tspan><tspan class="st51">3 </tspan><tspan class="st51">and upper layers kept as </tspan><tspan x="122.7" dy="1.2em" class="st51">received</tspan><tspan class="st49">.</tspan></text> </g> <g id="shape1061-469" v:mID="1061" v:groupContext="shape" transform="translate(613.905,-165.897) rotate(28.3547)"> <title>Feuille.1061</title> <path d="M0 541.27 L29.68 541.27" class="st52"/> </g> <g id="shape1062-475" v:mID="1062" v:groupContext="shape" transform="translate(669.129,851.921) rotate(176.218)"> <title>Feuille.1062</title> <path d="M0 541.27 L229.03 541.27" class="st52"/> </g> <g id="shape1064-480" v:mID="1064" v:groupContext="shape" transform="translate(422.029,-169.255)"> <title>Feuille.1064</title> <desc>Keep upper layers as received</desc> <rect x="0" y="520.29" width="188.504" height="20.9764" rx="5.66929" ry="5.66929" class="st54"/> <text x="20.05" y="534.38" class="st55" v:langID="1036">Keep upper layers as received</text> </g> <g id="shape1065-483" v:mID="1065" v:groupContext="shape" transform="translate(940.476,348.767) rotate(90)"> <title>Feuille.1065</title> <path d="M0 541.27 L26.4 541.27" class="st56"/> </g> <g id="shape1066-489" v:mID="1066" v:groupContext="shape" transform="translate(1179.44,352.213) rotate(90)"> <title>Feuille.1066</title> <path d="M0 541.27 L23.24 541.27" class="st56"/> </g> <g id="shape1067-494" v:mID="1067" v:groupContext="shape" transform="translate(58.1111,-169.255)"> <title>Feuille.1067</title> <desc>Read L3 Header</desc> <rect x="0" y="520.29" width="188.504" height="20.9764" rx="5.66929" ry="5.66929" class="st54"/> <text x="55.24" y="534.38" class="st55" v:langID="1036">Read L3 Header</text> </g> <g id="shape1070-497" v:mID="1070" v:groupContext="shape" v:layerMember="0" transform="translate(303.682,-264.782)"> <title>Lien dynamique.1070</title> <path d="M0 534.18 C0 491.66 17.69 441.38 35.41 441.38 C52.28 441.38 69.17 486.96 70.75 528.02 L70.75 528.38" class="st57"/> </g> <g id="shape1076-503" v:mID="1076" v:groupContext="shape" transform="translate(0.375,-49.5581)"> <title>Feuille.1076</title> <desc>1</desc> <rect x="0" y="520.038" width="21.2598" height="21.2283" rx="10.6142" ry="10.6142" class="st59"/> <text x="6.07" y="536.05" class="st60" v:langID="1036">1</text> </g> <g id="shape1077-506" v:mID="1077" v:groupContext="shape" transform="translate(0.375,-169.255)"> <title>Feuille.1077</title> <desc>2</desc> <rect x="0" y="520.038" width="21.2598" height="21.2283" rx="10.6142" ry="10.6142" class="st59"/> <text x="6.07" y="536.05" class="st60" v:langID="1036">2</text> </g> <g id="shape1078-509" v:mID="1078" v:groupContext="shape" transform="translate(0.375,-351.964)"> <title>Feuille.1078</title> <desc>3</desc> <rect x="0" y="520.038" width="21.2598" height="21.2283" rx="10.6142" ry="10.6142" class="st59"/> <text x="6.07" y="536.05" class="st60" v:langID="1036">3</text> </g> <g id="shape1079-512" v:mID="1079" v:groupContext="shape" transform="translate(668.643,-351.964)"> <title>Feuille.1079</title> <desc>4</desc> <rect x="0" y="520.038" width="21.2598" height="21.2283" rx="10.6142" ry="10.6142" class="st59"/> <text x="6.07" y="536.05" class="st60" v:langID="1036">4</text> </g> <g id="shape1080-515" v:mID="1080" v:groupContext="shape" transform="translate(668.643,-285.916)"> <title>Feuille.1080</title> <desc>5</desc> <rect x="0" y="520.038" width="21.2598" height="21.2283" rx="10.6142" ry="10.6142" class="st59"/> <text x="6.07" y="536.05" class="st60" v:langID="1036">5</text> </g> <g id="shape1081-518" v:mID="1081" v:groupContext="shape" transform="translate(668.643,-236.468)"> <title>Feuille.1081</title> <desc>6</desc> <rect x="0" y="520.038" width="21.2598" height="21.2283" rx="10.6142" ry="10.6142" class="st59"/> <text x="6.07" y="536.05" class="st60" v:langID="1036">6</text> </g> <g id="shape1082-521" v:mID="1082" v:groupContext="shape" transform="translate(668.643,-50.0281)"> <title>Feuille.1082</title> <desc>7</desc> <rect x="0" y="520.038" width="21.2598" height="21.2283" rx="10.6142" ry="10.6142" class="st59"/> <text x="6.07" y="536.05" class="st60" v:langID="1036">7</text> </g> <g id="shape1088-524" v:mID="1088" v:groupContext="shape" transform="translate(310.564,-182.916) rotate(28.7)"> <title>Feuille.1088</title> <desc>Benjamin Bachelart &lt;ben@bashy.eu&gt;</desc> <rect x="0" y="238.462" width="518.588" height="302.804" class="st61"/> <text x="69.07" y="375.46" class="st62" v:langID="1036">Benjamin Bachelart<tspan x="89.2" dy="1.2em" class="st50">&lt;</tspan>ben@bashy.eu&gt;</text> </g> </g> </svg>